<mxfile host="Electron" agent="Mozilla/5.0 (Windows NT 10.0; Win64; x64) AppleWebKit/537.36 (KHTML, like Gecko) draw.io/24.7.5 Chrome/126.0.6478.183 Electron/31.3.0 Safari/537.36" version="24.7.5">
  <diagram name="Page-1" id="c9db0220-8083-56f3-ca83-edcdcd058819">
    <mxGraphModel dx="4185" dy="5682" grid="1" gridSize="10" guides="1" tooltips="1" connect="1" arrows="1" fold="1" page="1" pageScale="1.5" pageWidth="826" pageHeight="1169" background="none" math="0" shadow="0">
      <root>
        <mxCell id="0" style=";html=1;" />
        <mxCell id="1" style=";html=1;" parent="0" />
        <mxCell id="aV__2GZd391ZfSr0Xz96-7" value="" style="strokeWidth=1;shadow=0;dashed=0;align=center;html=1;shape=mxgraph.mockup.containers.window;align=left;verticalAlign=top;spacingLeft=8;strokeColor2=#008cff;strokeColor3=#c4c4c4;fontColor=#ffffff;mainText=;fontSize=17;labelBackgroundColor=none;whiteSpace=wrap;movable=1;resizable=1;rotatable=1;deletable=1;editable=1;locked=0;connectable=1;" parent="1" vertex="1">
          <mxGeometry x="44.55" y="-3380" width="1280" height="800" as="geometry" />
        </mxCell>
        <mxCell id="aV__2GZd391ZfSr0Xz96-33" value="" style="rounded=0;whiteSpace=wrap;html=1;movable=1;resizable=1;rotatable=1;deletable=1;editable=1;locked=0;connectable=1;" parent="1" vertex="1">
          <mxGeometry x="44.55" y="-3350" width="1280" height="110" as="geometry" />
        </mxCell>
        <mxCell id="aV__2GZd391ZfSr0Xz96-31" value="" style="group;movable=1;resizable=1;rotatable=1;deletable=1;editable=1;locked=0;connectable=1;" parent="1" vertex="1" connectable="0">
          <mxGeometry x="74.55" y="-3190" width="738" height="350" as="geometry" />
        </mxCell>
        <mxCell id="aV__2GZd391ZfSr0Xz96-11" value="Отделение 2.2" style="rounded=0;whiteSpace=wrap;html=1;fillColor=#ffffff;fontColor=#000000;gradientColor=none;movable=1;resizable=1;rotatable=1;deletable=1;editable=1;locked=0;connectable=1;" parent="aV__2GZd391ZfSr0Xz96-31" vertex="1">
          <mxGeometry x="340" y="220" width="150" height="50" as="geometry" />
        </mxCell>
        <mxCell id="aV__2GZd391ZfSr0Xz96-12" value="Отделение 2.1" style="rounded=0;whiteSpace=wrap;html=1;movable=1;resizable=1;rotatable=1;deletable=1;editable=1;locked=0;connectable=1;" parent="aV__2GZd391ZfSr0Xz96-31" vertex="1">
          <mxGeometry x="150" y="220" width="150" height="50" as="geometry" />
        </mxCell>
        <mxCell id="aV__2GZd391ZfSr0Xz96-13" value="Отделение3" style="rounded=0;whiteSpace=wrap;html=1;movable=1;resizable=1;rotatable=1;deletable=1;editable=1;locked=0;connectable=1;" parent="aV__2GZd391ZfSr0Xz96-31" vertex="1">
          <mxGeometry x="410" y="110" width="150" height="50" as="geometry" />
        </mxCell>
        <mxCell id="aV__2GZd391ZfSr0Xz96-14" value="Отделение 2" style="rounded=0;whiteSpace=wrap;html=1;movable=1;resizable=1;rotatable=1;deletable=1;editable=1;locked=0;connectable=1;" parent="aV__2GZd391ZfSr0Xz96-31" vertex="1">
          <mxGeometry x="200" y="120" width="150" height="50" as="geometry" />
        </mxCell>
        <mxCell id="aV__2GZd391ZfSr0Xz96-15" value="Отделение 1" style="rounded=0;whiteSpace=wrap;html=1;fillColor=#FFFFFF;movable=1;resizable=1;rotatable=1;deletable=1;editable=1;locked=0;connectable=1;" parent="aV__2GZd391ZfSr0Xz96-31" vertex="1">
          <mxGeometry y="120" width="150" height="50" as="geometry" />
        </mxCell>
        <mxCell id="aV__2GZd391ZfSr0Xz96-16" value="Дороги России" style="rounded=0;whiteSpace=wrap;html=1;movable=1;resizable=1;rotatable=1;deletable=1;editable=1;locked=0;connectable=1;" parent="aV__2GZd391ZfSr0Xz96-31" vertex="1">
          <mxGeometry x="180" width="150" height="50" as="geometry" />
        </mxCell>
        <mxCell id="aV__2GZd391ZfSr0Xz96-18" value="" style="endArrow=classic;html=1;rounded=0;exitX=0.5;exitY=1;exitDx=0;exitDy=0;entryX=0.5;entryY=0;entryDx=0;entryDy=0;movable=1;resizable=1;rotatable=1;deletable=1;editable=1;locked=0;connectable=1;" parent="aV__2GZd391ZfSr0Xz96-31" source="aV__2GZd391ZfSr0Xz96-16" target="aV__2GZd391ZfSr0Xz96-15" edge="1">
          <mxGeometry width="50" height="50" relative="1" as="geometry">
            <mxPoint x="470" y="190" as="sourcePoint" />
            <mxPoint x="520" y="140" as="targetPoint" />
          </mxGeometry>
        </mxCell>
        <mxCell id="aV__2GZd391ZfSr0Xz96-19" value="" style="endArrow=classic;html=1;rounded=0;exitX=0.5;exitY=1;exitDx=0;exitDy=0;entryX=0.5;entryY=0;entryDx=0;entryDy=0;movable=1;resizable=1;rotatable=1;deletable=1;editable=1;locked=0;connectable=1;" parent="aV__2GZd391ZfSr0Xz96-31" source="aV__2GZd391ZfSr0Xz96-16" target="aV__2GZd391ZfSr0Xz96-14" edge="1">
          <mxGeometry width="50" height="50" relative="1" as="geometry">
            <mxPoint x="265" y="60" as="sourcePoint" />
            <mxPoint x="85" y="130" as="targetPoint" />
          </mxGeometry>
        </mxCell>
        <mxCell id="aV__2GZd391ZfSr0Xz96-20" value="" style="endArrow=classic;html=1;rounded=0;exitX=0.5;exitY=1;exitDx=0;exitDy=0;entryX=0.5;entryY=0;entryDx=0;entryDy=0;movable=1;resizable=1;rotatable=1;deletable=1;editable=1;locked=0;connectable=1;" parent="aV__2GZd391ZfSr0Xz96-31" source="aV__2GZd391ZfSr0Xz96-16" target="aV__2GZd391ZfSr0Xz96-13" edge="1">
          <mxGeometry width="50" height="50" relative="1" as="geometry">
            <mxPoint x="265" y="60" as="sourcePoint" />
            <mxPoint x="285" y="130" as="targetPoint" />
          </mxGeometry>
        </mxCell>
        <mxCell id="aV__2GZd391ZfSr0Xz96-21" value="" style="endArrow=classic;html=1;rounded=0;exitX=0.5;exitY=1;exitDx=0;exitDy=0;entryX=0.5;entryY=0;entryDx=0;entryDy=0;movable=1;resizable=1;rotatable=1;deletable=1;editable=1;locked=0;connectable=1;" parent="aV__2GZd391ZfSr0Xz96-31" source="aV__2GZd391ZfSr0Xz96-14" target="aV__2GZd391ZfSr0Xz96-12" edge="1">
          <mxGeometry width="50" height="50" relative="1" as="geometry">
            <mxPoint x="140" y="230" as="sourcePoint" />
            <mxPoint x="190" y="180" as="targetPoint" />
          </mxGeometry>
        </mxCell>
        <mxCell id="aV__2GZd391ZfSr0Xz96-22" value="" style="endArrow=classic;html=1;rounded=0;exitX=0.5;exitY=1;exitDx=0;exitDy=0;entryX=0.5;entryY=0;entryDx=0;entryDy=0;movable=1;resizable=1;rotatable=1;deletable=1;editable=1;locked=0;connectable=1;" parent="aV__2GZd391ZfSr0Xz96-31" source="aV__2GZd391ZfSr0Xz96-14" target="aV__2GZd391ZfSr0Xz96-11" edge="1">
          <mxGeometry width="50" height="50" relative="1" as="geometry">
            <mxPoint x="285" y="180" as="sourcePoint" />
            <mxPoint x="235" y="230" as="targetPoint" />
          </mxGeometry>
        </mxCell>
        <mxCell id="aV__2GZd391ZfSr0Xz96-32" value="Логотип компании" style="ellipse;whiteSpace=wrap;html=1;aspect=fixed;movable=1;resizable=1;rotatable=1;deletable=1;editable=1;locked=0;connectable=1;" parent="1" vertex="1">
          <mxGeometry x="74.55" y="-3335" width="80" height="80" as="geometry" />
        </mxCell>
        <mxCell id="aV__2GZd391ZfSr0Xz96-34" value="&amp;nbsp; &amp;nbsp;Организационная структура" style="rounded=1;whiteSpace=wrap;html=1;align=left;movable=1;resizable=1;rotatable=1;deletable=1;editable=1;locked=0;connectable=1;" parent="1" vertex="1">
          <mxGeometry x="184.55" y="-3320" width="950" height="45" as="geometry" />
        </mxCell>
        <mxCell id="aV__2GZd391ZfSr0Xz96-52" value="Отделение3" style="rounded=0;whiteSpace=wrap;html=1;movable=1;resizable=1;rotatable=1;deletable=1;editable=1;locked=0;connectable=1;" parent="1" vertex="1">
          <mxGeometry x="654.55" y="-3080" width="150" height="50" as="geometry" />
        </mxCell>
        <mxCell id="aV__2GZd391ZfSr0Xz96-54" value="" style="endArrow=classic;html=1;rounded=0;entryX=0.5;entryY=0;entryDx=0;entryDy=0;movable=1;resizable=1;rotatable=1;deletable=1;editable=1;locked=0;connectable=1;" parent="1" target="aV__2GZd391ZfSr0Xz96-52" edge="1">
          <mxGeometry width="50" height="50" relative="1" as="geometry">
            <mxPoint x="334.55" y="-3140" as="sourcePoint" />
            <mxPoint x="569.55" y="-3070" as="targetPoint" />
          </mxGeometry>
        </mxCell>
        <mxCell id="aV__2GZd391ZfSr0Xz96-38" value="" style="rounded=0;whiteSpace=wrap;html=1;movable=1;resizable=1;rotatable=1;deletable=1;editable=1;locked=0;connectable=1;" parent="1" vertex="1">
          <mxGeometry x="704.55" y="-3240" width="620" height="660" as="geometry" />
        </mxCell>
        <mxCell id="aV__2GZd391ZfSr0Xz96-8" value="+" style="strokeWidth=1;shadow=0;dashed=0;align=center;html=1;shape=mxgraph.mockup.buttons.button;strokeColor=#666666;fontColor=#ffffff;mainText=;buttonStyle=round;fontSize=17;fontStyle=1;fillColor=#008cff;whiteSpace=wrap;movable=1;resizable=1;rotatable=1;deletable=1;editable=1;locked=0;connectable=1;" parent="1" vertex="1">
          <mxGeometry x="1264.55" y="-2640" width="50" height="50" as="geometry" />
        </mxCell>
        <mxCell id="BMpMJqY8s_4Y7fT_cOyo-488" value="" style="verticalLabelPosition=bottom;shadow=0;dashed=0;align=center;html=1;verticalAlign=top;strokeWidth=1;shape=mxgraph.mockup.navigation.scrollBar;strokeColor=#000000;barPos=2.751;fillColor2=#008cff;strokeColor2=none;rotation=0;fontSize=12;movable=1;resizable=1;rotatable=1;deletable=1;editable=1;locked=0;connectable=1;" parent="1" vertex="1">
          <mxGeometry x="44.55" y="-2600" width="640" height="19" as="geometry" />
        </mxCell>
        <mxCell id="BMpMJqY8s_4Y7fT_cOyo-489" value="" style="verticalLabelPosition=bottom;shadow=0;dashed=0;align=center;html=1;verticalAlign=top;strokeWidth=1;shape=mxgraph.mockup.navigation.scrollBar;strokeColor=#000000;barPos=3.254;fillColor2=#008cff;strokeColor2=none;rotation=90;fontSize=12;movable=1;resizable=1;rotatable=1;deletable=1;editable=1;locked=0;connectable=1;" parent="1" vertex="1">
          <mxGeometry x="374.55" y="-2929.5" width="640" height="19" as="geometry" />
        </mxCell>
        <mxCell id="BMpMJqY8s_4Y7fT_cOyo-497" value="" style="group;movable=1;resizable=1;rotatable=1;deletable=1;editable=1;locked=0;connectable=1;" parent="1" vertex="1" connectable="0">
          <mxGeometry x="1394.55" y="-3420" width="1280" height="850" as="geometry" />
        </mxCell>
        <mxCell id="BMpMJqY8s_4Y7fT_cOyo-439" value="" style="strokeWidth=1;shadow=0;dashed=0;align=center;html=1;shape=mxgraph.mockup.containers.window;align=left;verticalAlign=top;spacingLeft=8;strokeColor2=#008cff;strokeColor3=#c4c4c4;fontColor=#ffffff;mainText=;fontSize=17;labelBackgroundColor=none;whiteSpace=wrap;movable=1;resizable=1;rotatable=1;deletable=1;editable=1;locked=0;connectable=1;" parent="BMpMJqY8s_4Y7fT_cOyo-497" vertex="1">
          <mxGeometry y="40.00000000000001" width="1280" height="800" as="geometry" />
        </mxCell>
        <mxCell id="BMpMJqY8s_4Y7fT_cOyo-440" value="" style="rounded=0;whiteSpace=wrap;html=1;movable=1;resizable=1;rotatable=1;deletable=1;editable=1;locked=0;connectable=1;" parent="BMpMJqY8s_4Y7fT_cOyo-497" vertex="1">
          <mxGeometry y="70.00000000000001" width="1280" height="110" as="geometry" />
        </mxCell>
        <mxCell id="BMpMJqY8s_4Y7fT_cOyo-441" value="" style="group;movable=1;resizable=1;rotatable=1;deletable=1;editable=1;locked=0;connectable=1;" parent="BMpMJqY8s_4Y7fT_cOyo-497" vertex="1" connectable="0">
          <mxGeometry x="30" y="229.99999999999997" width="560" height="350" as="geometry" />
        </mxCell>
        <mxCell id="BMpMJqY8s_4Y7fT_cOyo-442" value="Отделение 2.2" style="rounded=0;whiteSpace=wrap;html=1;fillColor=#ffffff;fontColor=#000000;gradientColor=none;movable=1;resizable=1;rotatable=1;deletable=1;editable=1;locked=0;connectable=1;" parent="BMpMJqY8s_4Y7fT_cOyo-441" vertex="1">
          <mxGeometry x="340" y="220" width="150" height="50" as="geometry" />
        </mxCell>
        <mxCell id="BMpMJqY8s_4Y7fT_cOyo-443" value="Отделение 2.1" style="rounded=0;whiteSpace=wrap;html=1;movable=1;resizable=1;rotatable=1;deletable=1;editable=1;locked=0;connectable=1;" parent="BMpMJqY8s_4Y7fT_cOyo-441" vertex="1">
          <mxGeometry x="150" y="220" width="150" height="50" as="geometry" />
        </mxCell>
        <mxCell id="BMpMJqY8s_4Y7fT_cOyo-444" value="Отделение3" style="rounded=0;whiteSpace=wrap;html=1;movable=1;resizable=1;rotatable=1;deletable=1;editable=1;locked=0;connectable=1;" parent="BMpMJqY8s_4Y7fT_cOyo-441" vertex="1">
          <mxGeometry x="410" y="110" width="150" height="50" as="geometry" />
        </mxCell>
        <mxCell id="BMpMJqY8s_4Y7fT_cOyo-445" value="Отделение 2" style="rounded=0;whiteSpace=wrap;html=1;movable=1;resizable=1;rotatable=1;deletable=1;editable=1;locked=0;connectable=1;" parent="BMpMJqY8s_4Y7fT_cOyo-441" vertex="1">
          <mxGeometry x="200" y="120" width="150" height="50" as="geometry" />
        </mxCell>
        <mxCell id="BMpMJqY8s_4Y7fT_cOyo-446" value="Отделение 1" style="rounded=0;whiteSpace=wrap;html=1;fillColor=#8f8f8f;movable=1;resizable=1;rotatable=1;deletable=1;editable=1;locked=0;connectable=1;" parent="BMpMJqY8s_4Y7fT_cOyo-441" vertex="1">
          <mxGeometry y="120" width="150" height="50" as="geometry" />
        </mxCell>
        <mxCell id="BMpMJqY8s_4Y7fT_cOyo-447" value="Дороги России" style="rounded=0;whiteSpace=wrap;html=1;movable=1;resizable=1;rotatable=1;deletable=1;editable=1;locked=0;connectable=1;" parent="BMpMJqY8s_4Y7fT_cOyo-441" vertex="1">
          <mxGeometry x="180" width="150" height="50" as="geometry" />
        </mxCell>
        <mxCell id="BMpMJqY8s_4Y7fT_cOyo-448" value="" style="endArrow=classic;html=1;rounded=0;exitX=0.5;exitY=1;exitDx=0;exitDy=0;entryX=0.5;entryY=0;entryDx=0;entryDy=0;movable=1;resizable=1;rotatable=1;deletable=1;editable=1;locked=0;connectable=1;" parent="BMpMJqY8s_4Y7fT_cOyo-441" source="BMpMJqY8s_4Y7fT_cOyo-447" target="BMpMJqY8s_4Y7fT_cOyo-446" edge="1">
          <mxGeometry width="50" height="50" relative="1" as="geometry">
            <mxPoint x="470" y="190" as="sourcePoint" />
            <mxPoint x="520" y="140" as="targetPoint" />
          </mxGeometry>
        </mxCell>
        <mxCell id="BMpMJqY8s_4Y7fT_cOyo-449" value="" style="endArrow=classic;html=1;rounded=0;exitX=0.5;exitY=1;exitDx=0;exitDy=0;entryX=0.5;entryY=0;entryDx=0;entryDy=0;movable=1;resizable=1;rotatable=1;deletable=1;editable=1;locked=0;connectable=1;" parent="BMpMJqY8s_4Y7fT_cOyo-441" source="BMpMJqY8s_4Y7fT_cOyo-447" target="BMpMJqY8s_4Y7fT_cOyo-445" edge="1">
          <mxGeometry width="50" height="50" relative="1" as="geometry">
            <mxPoint x="265" y="60" as="sourcePoint" />
            <mxPoint x="85" y="130" as="targetPoint" />
          </mxGeometry>
        </mxCell>
        <mxCell id="BMpMJqY8s_4Y7fT_cOyo-450" value="" style="endArrow=classic;html=1;rounded=0;exitX=0.5;exitY=1;exitDx=0;exitDy=0;entryX=0.5;entryY=0;entryDx=0;entryDy=0;movable=1;resizable=1;rotatable=1;deletable=1;editable=1;locked=0;connectable=1;" parent="BMpMJqY8s_4Y7fT_cOyo-441" source="BMpMJqY8s_4Y7fT_cOyo-447" target="BMpMJqY8s_4Y7fT_cOyo-444" edge="1">
          <mxGeometry width="50" height="50" relative="1" as="geometry">
            <mxPoint x="265" y="60" as="sourcePoint" />
            <mxPoint x="285" y="130" as="targetPoint" />
          </mxGeometry>
        </mxCell>
        <mxCell id="BMpMJqY8s_4Y7fT_cOyo-451" value="" style="endArrow=classic;html=1;rounded=0;exitX=0.5;exitY=1;exitDx=0;exitDy=0;entryX=0.5;entryY=0;entryDx=0;entryDy=0;movable=1;resizable=1;rotatable=1;deletable=1;editable=1;locked=0;connectable=1;" parent="BMpMJqY8s_4Y7fT_cOyo-441" source="BMpMJqY8s_4Y7fT_cOyo-445" target="BMpMJqY8s_4Y7fT_cOyo-443" edge="1">
          <mxGeometry width="50" height="50" relative="1" as="geometry">
            <mxPoint x="140" y="230" as="sourcePoint" />
            <mxPoint x="190" y="180" as="targetPoint" />
          </mxGeometry>
        </mxCell>
        <mxCell id="BMpMJqY8s_4Y7fT_cOyo-452" value="" style="endArrow=classic;html=1;rounded=0;exitX=0.5;exitY=1;exitDx=0;exitDy=0;entryX=0.5;entryY=0;entryDx=0;entryDy=0;movable=1;resizable=1;rotatable=1;deletable=1;editable=1;locked=0;connectable=1;" parent="BMpMJqY8s_4Y7fT_cOyo-441" source="BMpMJqY8s_4Y7fT_cOyo-445" target="BMpMJqY8s_4Y7fT_cOyo-442" edge="1">
          <mxGeometry width="50" height="50" relative="1" as="geometry">
            <mxPoint x="285" y="180" as="sourcePoint" />
            <mxPoint x="235" y="230" as="targetPoint" />
          </mxGeometry>
        </mxCell>
        <mxCell id="BMpMJqY8s_4Y7fT_cOyo-453" value="Логотип компании" style="ellipse;whiteSpace=wrap;html=1;aspect=fixed;movable=1;resizable=1;rotatable=1;deletable=1;editable=1;locked=0;connectable=1;" parent="BMpMJqY8s_4Y7fT_cOyo-497" vertex="1">
          <mxGeometry x="30" y="85.00000000000001" width="80" height="80" as="geometry" />
        </mxCell>
        <mxCell id="BMpMJqY8s_4Y7fT_cOyo-454" value="&amp;nbsp; &amp;nbsp;Организационная структура" style="rounded=1;whiteSpace=wrap;html=1;align=left;movable=1;resizable=1;rotatable=1;deletable=1;editable=1;locked=0;connectable=1;" parent="BMpMJqY8s_4Y7fT_cOyo-497" vertex="1">
          <mxGeometry x="140" y="100.00000000000001" width="950" height="45" as="geometry" />
        </mxCell>
        <mxCell id="BMpMJqY8s_4Y7fT_cOyo-455" value="Отделение3" style="rounded=0;whiteSpace=wrap;html=1;movable=1;resizable=1;rotatable=1;deletable=1;editable=1;locked=0;connectable=1;" parent="BMpMJqY8s_4Y7fT_cOyo-497" vertex="1">
          <mxGeometry x="610" y="339.99999999999994" width="150" height="50" as="geometry" />
        </mxCell>
        <mxCell id="BMpMJqY8s_4Y7fT_cOyo-456" value="" style="endArrow=classic;html=1;rounded=0;entryX=0.5;entryY=0;entryDx=0;entryDy=0;movable=1;resizable=1;rotatable=1;deletable=1;editable=1;locked=0;connectable=1;" parent="BMpMJqY8s_4Y7fT_cOyo-497" target="BMpMJqY8s_4Y7fT_cOyo-455" edge="1">
          <mxGeometry width="50" height="50" relative="1" as="geometry">
            <mxPoint x="290" y="279.99999999999994" as="sourcePoint" />
            <mxPoint x="525" y="349.99999999999994" as="targetPoint" />
          </mxGeometry>
        </mxCell>
        <mxCell id="BMpMJqY8s_4Y7fT_cOyo-457" value="" style="rounded=0;whiteSpace=wrap;html=1;movable=1;resizable=1;rotatable=1;deletable=1;editable=1;locked=0;connectable=1;" parent="BMpMJqY8s_4Y7fT_cOyo-497" vertex="1">
          <mxGeometry x="660" y="180.00000000000003" width="620" height="660" as="geometry" />
        </mxCell>
        <mxCell id="BMpMJqY8s_4Y7fT_cOyo-460" value="+" style="strokeWidth=1;shadow=0;dashed=0;align=center;html=1;shape=mxgraph.mockup.buttons.button;strokeColor=#666666;fontColor=#ffffff;mainText=;buttonStyle=round;fontSize=17;fontStyle=1;fillColor=#008cff;whiteSpace=wrap;movable=1;resizable=1;rotatable=1;deletable=1;editable=1;locked=0;connectable=1;" parent="BMpMJqY8s_4Y7fT_cOyo-497" vertex="1">
          <mxGeometry x="1220" y="780" width="50" height="50" as="geometry" />
        </mxCell>
        <mxCell id="BMpMJqY8s_4Y7fT_cOyo-461" value="" style="group;movable=1;resizable=1;rotatable=1;deletable=1;editable=1;locked=0;connectable=1;" parent="BMpMJqY8s_4Y7fT_cOyo-497" vertex="1" connectable="0">
          <mxGeometry x="690" y="329.99999999999994" width="540" height="110" as="geometry" />
        </mxCell>
        <mxCell id="BMpMJqY8s_4Y7fT_cOyo-462" value="" style="rounded=0;whiteSpace=wrap;html=1;movable=1;resizable=1;rotatable=1;deletable=1;editable=1;locked=0;connectable=1;" parent="BMpMJqY8s_4Y7fT_cOyo-461" vertex="1">
          <mxGeometry width="540" height="110" as="geometry" />
        </mxCell>
        <mxCell id="BMpMJqY8s_4Y7fT_cOyo-463" value="Название отделения - Должность" style="text;html=1;align=left;verticalAlign=middle;whiteSpace=wrap;rounded=0;movable=1;resizable=1;rotatable=1;deletable=1;editable=1;locked=0;connectable=1;" parent="BMpMJqY8s_4Y7fT_cOyo-461" vertex="1">
          <mxGeometry x="20" y="10" width="200" height="30" as="geometry" />
        </mxCell>
        <mxCell id="BMpMJqY8s_4Y7fT_cOyo-464" value="ФИО" style="text;html=1;align=left;verticalAlign=middle;whiteSpace=wrap;rounded=0;movable=1;resizable=1;rotatable=1;deletable=1;editable=1;locked=0;connectable=1;" parent="BMpMJqY8s_4Y7fT_cOyo-461" vertex="1">
          <mxGeometry x="20" y="30" width="200" height="30" as="geometry" />
        </mxCell>
        <mxCell id="BMpMJqY8s_4Y7fT_cOyo-465" value="Рабочий телефон&amp;nbsp; &amp;nbsp; &amp;nbsp; Почта" style="text;html=1;align=left;verticalAlign=middle;whiteSpace=wrap;rounded=0;movable=1;resizable=1;rotatable=1;deletable=1;editable=1;locked=0;connectable=1;" parent="BMpMJqY8s_4Y7fT_cOyo-461" vertex="1">
          <mxGeometry x="20" y="50" width="200" height="30" as="geometry" />
        </mxCell>
        <mxCell id="BMpMJqY8s_4Y7fT_cOyo-466" value="Кабинет" style="text;html=1;align=left;verticalAlign=middle;whiteSpace=wrap;rounded=0;movable=1;resizable=1;rotatable=1;deletable=1;editable=1;locked=0;connectable=1;" parent="BMpMJqY8s_4Y7fT_cOyo-461" vertex="1">
          <mxGeometry x="20" y="70" width="200" height="30" as="geometry" />
        </mxCell>
        <mxCell id="BMpMJqY8s_4Y7fT_cOyo-467" value="" style="group;movable=1;resizable=1;rotatable=1;deletable=1;editable=1;locked=0;connectable=1;" parent="BMpMJqY8s_4Y7fT_cOyo-497" vertex="1" connectable="0">
          <mxGeometry x="690" y="200.00000000000003" width="540" height="110" as="geometry" />
        </mxCell>
        <mxCell id="BMpMJqY8s_4Y7fT_cOyo-468" value="" style="rounded=0;whiteSpace=wrap;html=1;movable=1;resizable=1;rotatable=1;deletable=1;editable=1;locked=0;connectable=1;" parent="BMpMJqY8s_4Y7fT_cOyo-467" vertex="1">
          <mxGeometry width="540" height="110" as="geometry" />
        </mxCell>
        <mxCell id="BMpMJqY8s_4Y7fT_cOyo-469" value="Название отделения - Должность" style="text;html=1;align=left;verticalAlign=middle;whiteSpace=wrap;rounded=0;movable=1;resizable=1;rotatable=1;deletable=1;editable=1;locked=0;connectable=1;" parent="BMpMJqY8s_4Y7fT_cOyo-467" vertex="1">
          <mxGeometry x="20" y="10" width="200" height="30" as="geometry" />
        </mxCell>
        <mxCell id="BMpMJqY8s_4Y7fT_cOyo-470" value="ФИО" style="text;html=1;align=left;verticalAlign=middle;whiteSpace=wrap;rounded=0;movable=1;resizable=1;rotatable=1;deletable=1;editable=1;locked=0;connectable=1;" parent="BMpMJqY8s_4Y7fT_cOyo-467" vertex="1">
          <mxGeometry x="20" y="30" width="200" height="30" as="geometry" />
        </mxCell>
        <mxCell id="BMpMJqY8s_4Y7fT_cOyo-471" value="Рабочий телефон&amp;nbsp; &amp;nbsp; &amp;nbsp; Почта" style="text;html=1;align=left;verticalAlign=middle;whiteSpace=wrap;rounded=0;movable=1;resizable=1;rotatable=1;deletable=1;editable=1;locked=0;connectable=1;" parent="BMpMJqY8s_4Y7fT_cOyo-467" vertex="1">
          <mxGeometry x="20" y="50" width="200" height="30" as="geometry" />
        </mxCell>
        <mxCell id="BMpMJqY8s_4Y7fT_cOyo-472" value="Кабинет" style="text;html=1;align=left;verticalAlign=middle;whiteSpace=wrap;rounded=0;movable=1;resizable=1;rotatable=1;deletable=1;editable=1;locked=0;connectable=1;" parent="BMpMJqY8s_4Y7fT_cOyo-467" vertex="1">
          <mxGeometry x="20" y="70" width="200" height="30" as="geometry" />
        </mxCell>
        <mxCell id="BMpMJqY8s_4Y7fT_cOyo-473" value="" style="group;movable=1;resizable=1;rotatable=1;deletable=1;editable=1;locked=0;connectable=1;" parent="BMpMJqY8s_4Y7fT_cOyo-497" vertex="1" connectable="0">
          <mxGeometry x="690" y="459.99999999999994" width="540" height="110" as="geometry" />
        </mxCell>
        <mxCell id="BMpMJqY8s_4Y7fT_cOyo-474" value="" style="rounded=0;whiteSpace=wrap;html=1;movable=1;resizable=1;rotatable=1;deletable=1;editable=1;locked=0;connectable=1;" parent="BMpMJqY8s_4Y7fT_cOyo-473" vertex="1">
          <mxGeometry width="540" height="110" as="geometry" />
        </mxCell>
        <mxCell id="BMpMJqY8s_4Y7fT_cOyo-475" value="Название отделения - Должность" style="text;html=1;align=left;verticalAlign=middle;whiteSpace=wrap;rounded=0;movable=1;resizable=1;rotatable=1;deletable=1;editable=1;locked=0;connectable=1;" parent="BMpMJqY8s_4Y7fT_cOyo-473" vertex="1">
          <mxGeometry x="20" y="10" width="200" height="30" as="geometry" />
        </mxCell>
        <mxCell id="BMpMJqY8s_4Y7fT_cOyo-476" value="ФИО" style="text;html=1;align=left;verticalAlign=middle;whiteSpace=wrap;rounded=0;movable=1;resizable=1;rotatable=1;deletable=1;editable=1;locked=0;connectable=1;" parent="BMpMJqY8s_4Y7fT_cOyo-473" vertex="1">
          <mxGeometry x="20" y="30" width="200" height="30" as="geometry" />
        </mxCell>
        <mxCell id="BMpMJqY8s_4Y7fT_cOyo-477" value="Рабочий телефон&amp;nbsp; &amp;nbsp; &amp;nbsp; Почта" style="text;html=1;align=left;verticalAlign=middle;whiteSpace=wrap;rounded=0;movable=1;resizable=1;rotatable=1;deletable=1;editable=1;locked=0;connectable=1;" parent="BMpMJqY8s_4Y7fT_cOyo-473" vertex="1">
          <mxGeometry x="20" y="50" width="200" height="30" as="geometry" />
        </mxCell>
        <mxCell id="BMpMJqY8s_4Y7fT_cOyo-478" value="Кабинет" style="text;html=1;align=left;verticalAlign=middle;whiteSpace=wrap;rounded=0;movable=1;resizable=1;rotatable=1;deletable=1;editable=1;locked=0;connectable=1;" parent="BMpMJqY8s_4Y7fT_cOyo-473" vertex="1">
          <mxGeometry x="20" y="70" width="200" height="30" as="geometry" />
        </mxCell>
        <mxCell id="BMpMJqY8s_4Y7fT_cOyo-479" value="" style="group;movable=1;resizable=1;rotatable=1;deletable=1;editable=1;locked=0;connectable=1;" parent="BMpMJqY8s_4Y7fT_cOyo-497" vertex="1" connectable="0">
          <mxGeometry x="690" y="590" width="540" height="110" as="geometry" />
        </mxCell>
        <mxCell id="BMpMJqY8s_4Y7fT_cOyo-480" value="" style="rounded=0;whiteSpace=wrap;html=1;movable=1;resizable=1;rotatable=1;deletable=1;editable=1;locked=0;connectable=1;" parent="BMpMJqY8s_4Y7fT_cOyo-479" vertex="1">
          <mxGeometry width="540" height="110" as="geometry" />
        </mxCell>
        <mxCell id="BMpMJqY8s_4Y7fT_cOyo-481" value="Название отделения - Должность" style="text;html=1;align=left;verticalAlign=middle;whiteSpace=wrap;rounded=0;movable=1;resizable=1;rotatable=1;deletable=1;editable=1;locked=0;connectable=1;" parent="BMpMJqY8s_4Y7fT_cOyo-479" vertex="1">
          <mxGeometry x="20" y="10" width="200" height="30" as="geometry" />
        </mxCell>
        <mxCell id="BMpMJqY8s_4Y7fT_cOyo-482" value="ФИО" style="text;html=1;align=left;verticalAlign=middle;whiteSpace=wrap;rounded=0;movable=1;resizable=1;rotatable=1;deletable=1;editable=1;locked=0;connectable=1;" parent="BMpMJqY8s_4Y7fT_cOyo-479" vertex="1">
          <mxGeometry x="20" y="30" width="200" height="30" as="geometry" />
        </mxCell>
        <mxCell id="BMpMJqY8s_4Y7fT_cOyo-483" value="Рабочий телефон&amp;nbsp; &amp;nbsp; &amp;nbsp; Почта" style="text;html=1;align=left;verticalAlign=middle;whiteSpace=wrap;rounded=0;movable=1;resizable=1;rotatable=1;deletable=1;editable=1;locked=0;connectable=1;" parent="BMpMJqY8s_4Y7fT_cOyo-479" vertex="1">
          <mxGeometry x="20" y="50" width="200" height="30" as="geometry" />
        </mxCell>
        <mxCell id="BMpMJqY8s_4Y7fT_cOyo-484" value="Кабинет" style="text;html=1;align=left;verticalAlign=middle;whiteSpace=wrap;rounded=0;movable=1;resizable=1;rotatable=1;deletable=1;editable=1;locked=0;connectable=1;" parent="BMpMJqY8s_4Y7fT_cOyo-479" vertex="1">
          <mxGeometry x="20" y="70" width="200" height="30" as="geometry" />
        </mxCell>
        <mxCell id="BMpMJqY8s_4Y7fT_cOyo-486" value="" style="verticalLabelPosition=bottom;shadow=0;dashed=0;align=center;html=1;verticalAlign=top;strokeWidth=1;shape=mxgraph.mockup.navigation.scrollBar;strokeColor=#000000;barPos=21.551;fillColor2=#008cff;strokeColor2=none;rotation=90;fontSize=12;movable=1;resizable=1;rotatable=1;deletable=1;editable=1;locked=0;connectable=1;" parent="BMpMJqY8s_4Y7fT_cOyo-497" vertex="1">
          <mxGeometry x="976" y="464" width="588" height="19" as="geometry" />
        </mxCell>
        <mxCell id="BMpMJqY8s_4Y7fT_cOyo-490" value="" style="verticalLabelPosition=bottom;shadow=0;dashed=0;align=center;html=1;verticalAlign=top;strokeWidth=1;shape=mxgraph.mockup.navigation.scrollBar;strokeColor=#000000;barPos=2.751;fillColor2=#008cff;strokeColor2=none;rotation=0;fontSize=12;movable=1;resizable=1;rotatable=1;deletable=1;editable=1;locked=0;connectable=1;" parent="BMpMJqY8s_4Y7fT_cOyo-497" vertex="1">
          <mxGeometry y="821" width="640" height="19" as="geometry" />
        </mxCell>
        <mxCell id="BMpMJqY8s_4Y7fT_cOyo-491" value="" style="verticalLabelPosition=bottom;shadow=0;dashed=0;align=center;html=1;verticalAlign=top;strokeWidth=1;shape=mxgraph.mockup.navigation.scrollBar;strokeColor=#000000;barPos=3.254;fillColor2=#008cff;strokeColor2=none;rotation=90;fontSize=12;movable=1;resizable=1;rotatable=1;deletable=1;editable=1;locked=0;connectable=1;" parent="BMpMJqY8s_4Y7fT_cOyo-497" vertex="1">
          <mxGeometry x="330" y="491.5" width="640" height="19" as="geometry" />
        </mxCell>
        <mxCell id="BMpMJqY8s_4Y7fT_cOyo-968" value="Окно &quot;Организационной структуры&quot;&amp;nbsp;&lt;div&gt;&lt;br&gt;&lt;/div&gt;&lt;div&gt;Отображает раскрытое древо отделений структурой древа&lt;br&gt;Выбранный элемента древа отображает сотрудников выбранного отделения и подчиненных ему отделений&lt;/div&gt;" style="text;html=1;align=left;verticalAlign=top;whiteSpace=wrap;rounded=0;movable=1;resizable=1;rotatable=1;deletable=1;editable=1;locked=0;connectable=1;" parent="BMpMJqY8s_4Y7fT_cOyo-497" vertex="1">
          <mxGeometry y="-60" width="510" height="100" as="geometry" />
        </mxCell>
        <mxCell id="BMpMJqY8s_4Y7fT_cOyo-848" value="" style="rounded=0;whiteSpace=wrap;html=1;fontColor=#999999;shadow=0;movable=1;resizable=1;rotatable=1;deletable=1;editable=1;locked=0;connectable=1;" parent="1" vertex="1">
          <mxGeometry x="3664.55" y="-3350.003333333333" width="839.9999999999998" height="760.0000000000005" as="geometry" />
        </mxCell>
        <mxCell id="BMpMJqY8s_4Y7fT_cOyo-849" value="" style="endArrow=none;html=1;rounded=0;entryX=0.5;entryY=0;entryDx=0;entryDy=0;exitX=0.5;exitY=1;exitDx=0;exitDy=0;shadow=0;movable=1;resizable=1;rotatable=1;deletable=1;editable=1;locked=0;connectable=1;" parent="1" source="BMpMJqY8s_4Y7fT_cOyo-848" target="BMpMJqY8s_4Y7fT_cOyo-848" edge="1">
          <mxGeometry width="50" height="50" relative="1" as="geometry">
            <mxPoint x="4103.640909090909" y="-2905.8441558441555" as="sourcePoint" />
            <mxPoint x="4151.368181818182" y="-2955.1948051948048" as="targetPoint" />
          </mxGeometry>
        </mxCell>
        <mxCell id="BMpMJqY8s_4Y7fT_cOyo-850" value="Тип события" style="strokeWidth=1;shadow=0;dashed=0;align=center;html=1;shape=mxgraph.mockup.forms.comboBox;strokeColor=#999999;fillColor=#008cff;align=left;fillColor2=#008cff;mainText=;fontColor=#666666;fontSize=17;spacingLeft=3;movable=1;resizable=1;rotatable=1;deletable=1;editable=1;locked=0;connectable=1;" parent="1" vertex="1">
          <mxGeometry x="4113.19" y="-2773.84" width="141.36" height="21.71" as="geometry" />
        </mxCell>
        <mxCell id="BMpMJqY8s_4Y7fT_cOyo-851" value="Текущие" style="strokeWidth=1;shadow=1;dashed=0;align=center;html=1;shape=mxgraph.mockup.buttons.button;strokeColor=#666666;fontColor=#ffffff;mainText=;buttonStyle=round;fontSize=17;fontStyle=1;fillColor=#008cff;whiteSpace=wrap;movable=1;resizable=1;rotatable=1;deletable=1;editable=1;locked=0;connectable=1;" parent="1" vertex="1">
          <mxGeometry x="4237.277272727272" y="-3330.2597402597403" width="114.54545454545452" height="49.35064935064937" as="geometry" />
        </mxCell>
        <mxCell id="BMpMJqY8s_4Y7fT_cOyo-852" value="Обучения" style="text;html=1;align=center;verticalAlign=middle;whiteSpace=wrap;rounded=0;shadow=0;movable=1;resizable=1;rotatable=1;deletable=1;editable=1;locked=0;connectable=1;" parent="1" vertex="1">
          <mxGeometry x="4113.186363636364" y="-3271.0389610389607" width="57.27272727272726" height="29.610389610389625" as="geometry" />
        </mxCell>
        <mxCell id="BMpMJqY8s_4Y7fT_cOyo-853" value="Отгулы" style="text;html=1;align=center;verticalAlign=middle;whiteSpace=wrap;rounded=0;shadow=0;movable=1;resizable=1;rotatable=1;deletable=1;editable=1;locked=0;connectable=1;" parent="1" vertex="1">
          <mxGeometry x="4113.186363636364" y="-3113.1168831168825" width="57.27272727272726" height="29.610389610389625" as="geometry" />
        </mxCell>
        <mxCell id="BMpMJqY8s_4Y7fT_cOyo-854" value="" style="rounded=0;whiteSpace=wrap;html=1;shadow=0;movable=1;resizable=1;rotatable=1;deletable=1;editable=1;locked=0;connectable=1;" parent="1" vertex="1">
          <mxGeometry x="4113.186363636364" y="-2925.584415584415" width="372.2727272727272" height="128.31168831168836" as="geometry" />
        </mxCell>
        <mxCell id="BMpMJqY8s_4Y7fT_cOyo-855" value="Отпуска" style="text;html=1;align=center;verticalAlign=middle;whiteSpace=wrap;rounded=0;shadow=0;movable=1;resizable=1;rotatable=1;deletable=1;editable=1;locked=0;connectable=1;" parent="1" vertex="1">
          <mxGeometry x="4113.186363636364" y="-2955.1948051948048" width="57.27272727272726" height="29.610389610389625" as="geometry" />
        </mxCell>
        <mxCell id="BMpMJqY8s_4Y7fT_cOyo-856" value="(Текущий отпуск)" style="rounded=0;whiteSpace=wrap;html=1;align=right;shadow=0;movable=1;resizable=1;rotatable=1;deletable=1;editable=1;locked=0;connectable=1;" parent="1" vertex="1">
          <mxGeometry x="4127.5" y="-2915.715733333333" width="327.04999999999995" height="49.34933333333334" as="geometry" />
        </mxCell>
        <mxCell id="BMpMJqY8s_4Y7fT_cOyo-857" value="(Будущий отпуск)" style="rounded=0;whiteSpace=wrap;html=1;align=right;shadow=0;movable=1;resizable=1;rotatable=1;deletable=1;editable=1;locked=0;connectable=1;" parent="1" vertex="1">
          <mxGeometry x="4127.5" y="-2856.496533333333" width="327.04999999999995" height="49.34933333333334" as="geometry" />
        </mxCell>
        <mxCell id="BMpMJqY8s_4Y7fT_cOyo-858" value="Описание события..." style="rounded=0;whiteSpace=wrap;html=1;shadow=0;movable=1;resizable=1;rotatable=1;deletable=1;editable=1;locked=0;connectable=1;verticalAlign=top;align=left;" parent="1" vertex="1">
          <mxGeometry x="4113.19" y="-2738.0499999999997" width="371.36" height="78.96" as="geometry" />
        </mxCell>
        <mxCell id="BMpMJqY8s_4Y7fT_cOyo-859" value="Добавить событие" style="strokeWidth=1;shadow=1;dashed=0;align=center;html=1;shape=mxgraph.mockup.buttons.button;strokeColor=#000000;fontColor=#ffffff;mainText=;buttonStyle=round;fontSize=17;fontStyle=1;fillColor=#008cff;whiteSpace=wrap;movable=1;resizable=1;rotatable=1;deletable=1;editable=1;locked=0;connectable=1;" parent="1" vertex="1">
          <mxGeometry x="4114.55" y="-2649.22" width="370" height="29.22" as="geometry" />
        </mxCell>
        <mxCell id="BMpMJqY8s_4Y7fT_cOyo-860" value="Прошедшие" style="strokeWidth=1;shadow=1;dashed=0;align=center;html=1;shape=mxgraph.mockup.buttons.button;strokeColor=#666666;fontColor=#000000;mainText=;buttonStyle=round;fontSize=17;fontStyle=0;fillColor=#ffffff;whiteSpace=wrap;movable=1;resizable=1;rotatable=1;deletable=1;editable=1;locked=0;connectable=1;" parent="1" vertex="1">
          <mxGeometry x="4113.186363636364" y="-3330.2597402597403" width="114.54545454545452" height="49.35064935064937" as="geometry" />
        </mxCell>
        <mxCell id="BMpMJqY8s_4Y7fT_cOyo-861" value="Будущие" style="strokeWidth=1;shadow=1;dashed=0;align=center;html=1;shape=mxgraph.mockup.buttons.button;strokeColor=#666666;fontColor=#ffffff;mainText=;buttonStyle=round;fontSize=17;fontStyle=1;fillColor=#008cff;whiteSpace=wrap;movable=1;resizable=1;rotatable=1;deletable=1;editable=1;locked=0;connectable=1;" parent="1" vertex="1">
          <mxGeometry x="4361.368181818182" y="-3330.2597402597403" width="114.54545454545452" height="49.35064935064937" as="geometry" />
        </mxCell>
        <mxCell id="BMpMJqY8s_4Y7fT_cOyo-862" value="Уволить сотрудника" style="strokeWidth=1;shadow=1;dashed=0;align=center;html=1;shape=mxgraph.mockup.buttons.button;strokeColor=#000000;fontColor=#ffffff;mainText=;buttonStyle=round;fontSize=17;fontStyle=1;fillColor=#008cff;whiteSpace=wrap;movable=1;resizable=1;rotatable=1;deletable=1;editable=1;locked=0;connectable=1;" parent="1" vertex="1">
          <mxGeometry x="3693.75" y="-2650.5199999999995" width="341.59" height="29.61" as="geometry" />
        </mxCell>
        <mxCell id="BMpMJqY8s_4Y7fT_cOyo-863" value="Сохранить изменения" style="strokeWidth=1;shadow=1;dashed=0;align=center;html=1;shape=mxgraph.mockup.buttons.button;strokeColor=#000000;fontColor=#ffffff;mainText=;buttonStyle=round;fontSize=17;fontStyle=1;fillColor=#008cff;whiteSpace=wrap;movable=1;resizable=1;rotatable=1;deletable=1;editable=1;locked=0;connectable=1;" parent="1" vertex="1">
          <mxGeometry x="3693.75" y="-2690" width="341.59" height="29.61" as="geometry" />
        </mxCell>
        <mxCell id="BMpMJqY8s_4Y7fT_cOyo-864" value="" style="strokeColor=#616161;verticalLabelPosition=bottom;shadow=1;dashed=0;verticalAlign=top;strokeWidth=1;html=1;shape=mxgraph.mockup.misc.editIcon;fillColor=#bdbdbd;fontColor=#949494;movable=1;resizable=1;rotatable=1;deletable=1;editable=1;locked=0;connectable=1;" parent="1" vertex="1">
          <mxGeometry x="3674.545454545455" y="-3337.69987012987" width="28.63636363636363" height="29.610389610389625" as="geometry" />
        </mxCell>
        <mxCell id="BMpMJqY8s_4Y7fT_cOyo-865" value="Фамилия:" style="text;html=1;align=left;verticalAlign=middle;whiteSpace=wrap;rounded=0;fontColor=#666666;strokeColor=none;shadow=0;movable=1;resizable=1;rotatable=1;deletable=1;editable=1;locked=0;connectable=1;" parent="1" vertex="1">
          <mxGeometry x="3694.55" y="-3299.33" width="350" height="18.42" as="geometry" />
        </mxCell>
        <mxCell id="BMpMJqY8s_4Y7fT_cOyo-866" value="Имя:" style="text;html=1;align=left;verticalAlign=middle;whiteSpace=wrap;rounded=0;fontColor=#66667f;shadow=0;movable=1;resizable=1;rotatable=1;deletable=1;editable=1;locked=0;connectable=1;" parent="1" vertex="1">
          <mxGeometry x="3693.75" y="-3252.1" width="350" height="18.42" as="geometry" />
        </mxCell>
        <mxCell id="BMpMJqY8s_4Y7fT_cOyo-867" value="Отчество:" style="text;html=1;align=left;verticalAlign=middle;whiteSpace=wrap;rounded=0;fontColor=#66667f;shadow=0;movable=1;resizable=1;rotatable=1;deletable=1;editable=1;locked=0;connectable=1;" parent="1" vertex="1">
          <mxGeometry x="3692.96" y="-3209.0199999999995" width="350" height="18.42" as="geometry" />
        </mxCell>
        <mxCell id="BMpMJqY8s_4Y7fT_cOyo-868" value="День рождения:" style="text;html=1;align=left;verticalAlign=middle;whiteSpace=wrap;rounded=0;fontColor=#66667f;shadow=0;movable=1;resizable=1;rotatable=1;deletable=1;editable=1;locked=0;connectable=1;" parent="1" vertex="1">
          <mxGeometry x="3692.96" y="-3160" width="350" height="18.42" as="geometry" />
        </mxCell>
        <mxCell id="BMpMJqY8s_4Y7fT_cOyo-869" value="Мобильный телефон:" style="text;html=1;align=left;verticalAlign=middle;whiteSpace=wrap;rounded=0;fontColor=#66667f;shadow=0;movable=1;resizable=1;rotatable=1;deletable=1;editable=1;locked=0;connectable=1;" parent="1" vertex="1">
          <mxGeometry x="3694.44" y="-3115.2299999999996" width="350" height="18.42" as="geometry" />
        </mxCell>
        <mxCell id="BMpMJqY8s_4Y7fT_cOyo-870" value="Рабочий телефон:" style="text;html=1;align=left;verticalAlign=middle;whiteSpace=wrap;rounded=0;fontColor=#66667f;shadow=0;movable=1;resizable=1;rotatable=1;deletable=1;editable=1;locked=0;connectable=1;" parent="1" vertex="1">
          <mxGeometry x="3693.65" y="-3069.3599999999997" width="350" height="18.42" as="geometry" />
        </mxCell>
        <mxCell id="BMpMJqY8s_4Y7fT_cOyo-871" value="Почта:" style="text;html=1;align=left;verticalAlign=middle;whiteSpace=wrap;rounded=0;fontColor=#66667f;shadow=0;movable=1;resizable=1;rotatable=1;deletable=1;editable=1;locked=0;connectable=1;" parent="1" vertex="1">
          <mxGeometry x="3693.6400000000003" y="-3024.29" width="350" height="18.42" as="geometry" />
        </mxCell>
        <mxCell id="BMpMJqY8s_4Y7fT_cOyo-872" value="Структурное отделение:" style="text;html=1;align=left;verticalAlign=middle;whiteSpace=wrap;rounded=0;fontColor=#66667f;shadow=0;movable=1;resizable=1;rotatable=1;deletable=1;editable=1;locked=0;connectable=1;" parent="1" vertex="1">
          <mxGeometry x="3694.33" y="-2976.3599999999997" width="350" height="18.42" as="geometry" />
        </mxCell>
        <mxCell id="BMpMJqY8s_4Y7fT_cOyo-873" value="Должность:" style="text;html=1;align=left;verticalAlign=middle;whiteSpace=wrap;rounded=0;fontColor=#66667f;shadow=0;movable=1;resizable=1;rotatable=1;deletable=1;editable=1;locked=0;connectable=1;" parent="1" vertex="1">
          <mxGeometry x="3695.2400000000002" y="-2929.8199999999997" width="350" height="18.42" as="geometry" />
        </mxCell>
        <mxCell id="BMpMJqY8s_4Y7fT_cOyo-874" value="Кабинет:" style="text;html=1;align=left;verticalAlign=middle;whiteSpace=wrap;rounded=0;fontColor=#66667f;shadow=0;movable=1;resizable=1;rotatable=1;deletable=1;editable=1;locked=0;connectable=1;" parent="1" vertex="1">
          <mxGeometry x="3693.75" y="-2879.8999999999996" width="350" height="18.42" as="geometry" />
        </mxCell>
        <mxCell id="BMpMJqY8s_4Y7fT_cOyo-875" value="дд.мм.гггг" style="strokeWidth=1;shadow=0;dashed=0;align=left;html=1;shape=mxgraph.mockup.forms.rrect;fillColor=#ffffff;rSize=0;fontColor=#666666;align=left;spacingLeft=3;strokeColor=#999999;movable=1;resizable=1;rotatable=1;deletable=1;editable=1;locked=0;connectable=1;" parent="1" vertex="1">
          <mxGeometry x="4294.55" y="-2775.6831999999995" width="79.99999999999999" height="21.705600000000004" as="geometry" />
        </mxCell>
        <mxCell id="BMpMJqY8s_4Y7fT_cOyo-876" value="От:" style="text;html=1;align=left;verticalAlign=middle;whiteSpace=wrap;rounded=0;fontColor=#66667f;shadow=0;movable=1;resizable=1;rotatable=1;deletable=1;editable=1;locked=0;connectable=1;" parent="1" vertex="1">
          <mxGeometry x="4270" y="-2775.6831999999995" width="24.549999999999997" height="23.549866666666667" as="geometry" />
        </mxCell>
        <mxCell id="BMpMJqY8s_4Y7fT_cOyo-877" value="дд.мм.гггг" style="strokeWidth=1;shadow=0;dashed=0;align=left;html=1;shape=mxgraph.mockup.forms.rrect;fillColor=#ffffff;rSize=0;fontColor=#666666;align=left;spacingLeft=3;strokeColor=#999999;movable=1;resizable=1;rotatable=1;deletable=1;editable=1;locked=0;connectable=1;" parent="1" vertex="1">
          <mxGeometry x="4405.46" y="-2775.6831999999995" width="79.99999999999999" height="23.549866666666667" as="geometry" />
        </mxCell>
        <mxCell id="BMpMJqY8s_4Y7fT_cOyo-878" value="До:" style="text;html=1;align=left;verticalAlign=middle;whiteSpace=wrap;rounded=0;fontColor=#66667f;shadow=0;movable=1;resizable=1;rotatable=1;deletable=1;editable=1;locked=0;connectable=1;" parent="1" vertex="1">
          <mxGeometry x="4380.91" y="-2775.6831999999995" width="23.639999999999997" height="23.549866666666667" as="geometry" />
        </mxCell>
        <mxCell id="BMpMJqY8s_4Y7fT_cOyo-879" value="" style="rounded=1;whiteSpace=wrap;html=1;fontColor=#666666;strokeColor=#999999;align=left;shadow=0;perimeterSpacing=0;movable=1;resizable=1;rotatable=1;deletable=1;editable=1;locked=0;connectable=1;" parent="1" vertex="1">
          <mxGeometry x="3694.55" y="-3280.12" width="348.41" height="18.24" as="geometry" />
        </mxCell>
        <mxCell id="BMpMJqY8s_4Y7fT_cOyo-880" value="" style="rounded=1;whiteSpace=wrap;html=1;fontColor=#666666;strokeColor=#999999;align=left;shadow=0;perimeterSpacing=0;movable=1;resizable=1;rotatable=1;deletable=1;editable=1;locked=0;connectable=1;" parent="1" vertex="1">
          <mxGeometry x="3693.76" y="-3233.68" width="348.41" height="18.24" as="geometry" />
        </mxCell>
        <mxCell id="BMpMJqY8s_4Y7fT_cOyo-881" value="" style="rounded=1;whiteSpace=wrap;html=1;fontColor=#666666;strokeColor=#999999;align=left;shadow=0;glass=0;movable=1;resizable=1;rotatable=1;deletable=1;editable=1;locked=0;connectable=1;" parent="1" vertex="1">
          <mxGeometry x="3692.96" y="-3190.6" width="348.41" height="18.24" as="geometry" />
        </mxCell>
        <mxCell id="BMpMJqY8s_4Y7fT_cOyo-882" value="&amp;nbsp; &amp;nbsp;дд.мм.гггг" style="rounded=1;whiteSpace=wrap;html=1;fontColor=#666666;strokeColor=#999999;align=left;shadow=0;glass=0;movable=1;resizable=1;rotatable=1;deletable=1;editable=1;locked=0;connectable=1;" parent="1" vertex="1">
          <mxGeometry x="3692.96" y="-3141.5699999999997" width="348.41" height="18.24" as="geometry" />
        </mxCell>
        <mxCell id="BMpMJqY8s_4Y7fT_cOyo-883" value="" style="rounded=1;whiteSpace=wrap;html=1;fontColor=#666666;strokeColor=#999999;align=left;shadow=0;glass=0;movable=1;resizable=1;rotatable=1;deletable=1;editable=1;locked=0;connectable=1;" parent="1" vertex="1">
          <mxGeometry x="3694.44" y="-3096.8099999999995" width="348.41" height="18.24" as="geometry" />
        </mxCell>
        <mxCell id="BMpMJqY8s_4Y7fT_cOyo-884" value="" style="rounded=1;whiteSpace=wrap;html=1;fontColor=#666666;strokeColor=#999999;align=left;shadow=0;glass=0;movable=1;resizable=1;rotatable=1;deletable=1;editable=1;locked=0;connectable=1;" parent="1" vertex="1">
          <mxGeometry x="3693.65" y="-3050.9399999999996" width="348.41" height="18.24" as="geometry" />
        </mxCell>
        <mxCell id="BMpMJqY8s_4Y7fT_cOyo-885" value="" style="rounded=1;whiteSpace=wrap;html=1;fontColor=#666666;strokeColor=#999999;align=left;shadow=0;glass=0;movable=1;resizable=1;rotatable=1;deletable=1;editable=1;locked=0;connectable=1;" parent="1" vertex="1">
          <mxGeometry x="3693.6400000000003" y="-3005.87" width="348.41" height="18.24" as="geometry" />
        </mxCell>
        <mxCell id="BMpMJqY8s_4Y7fT_cOyo-886" value="" style="rounded=1;whiteSpace=wrap;html=1;fontColor=#666666;strokeColor=#999999;align=left;shadow=0;glass=0;movable=1;resizable=1;rotatable=1;deletable=1;editable=1;locked=0;connectable=1;" parent="1" vertex="1">
          <mxGeometry x="3693.75" y="-2861.4799999999996" width="348.41" height="18.24" as="geometry" />
        </mxCell>
        <mxCell id="BMpMJqY8s_4Y7fT_cOyo-887" value="" style="verticalLabelPosition=bottom;shadow=0;dashed=0;align=center;html=1;verticalAlign=top;strokeWidth=1;shape=mxgraph.mockup.navigation.scrollBar;strokeColor=#000000;barPos=20;fillColor2=#008cff;strokeColor2=none;rotation=90;fontSize=12;movable=1;resizable=1;rotatable=1;deletable=1;editable=1;locked=0;connectable=1;" parent="1" vertex="1">
          <mxGeometry x="4412.55" y="-2871.5666666666666" width="125.99999999999999" height="20.26666666666667" as="geometry" />
        </mxCell>
        <mxCell id="BMpMJqY8s_4Y7fT_cOyo-888" value="" style="rounded=0;whiteSpace=wrap;html=1;shadow=0;movable=1;resizable=1;rotatable=1;deletable=1;editable=1;locked=0;connectable=1;" parent="1" vertex="1">
          <mxGeometry x="4114.546363636364" y="-3083.5044155844153" width="372.2727272727272" height="128.31168831168836" as="geometry" />
        </mxCell>
        <mxCell id="BMpMJqY8s_4Y7fT_cOyo-889" value="(Текущий отгул)" style="rounded=0;whiteSpace=wrap;html=1;align=right;shadow=0;movable=1;resizable=1;rotatable=1;deletable=1;editable=1;locked=0;connectable=1;" parent="1" vertex="1">
          <mxGeometry x="4128.86" y="-3073.635733333333" width="327.04999999999995" height="49.34933333333334" as="geometry" />
        </mxCell>
        <mxCell id="BMpMJqY8s_4Y7fT_cOyo-890" value="(Будущий отгул)" style="rounded=0;whiteSpace=wrap;html=1;align=right;shadow=0;movable=1;resizable=1;rotatable=1;deletable=1;editable=1;locked=0;connectable=1;" parent="1" vertex="1">
          <mxGeometry x="4128.86" y="-3014.416533333333" width="327.04999999999995" height="49.34933333333334" as="geometry" />
        </mxCell>
        <mxCell id="BMpMJqY8s_4Y7fT_cOyo-891" value="" style="verticalLabelPosition=bottom;shadow=0;dashed=0;align=center;html=1;verticalAlign=top;strokeWidth=1;shape=mxgraph.mockup.navigation.scrollBar;strokeColor=#000000;barPos=20;fillColor2=#008cff;strokeColor2=none;rotation=90;fontSize=12;movable=1;resizable=1;rotatable=1;deletable=1;editable=1;locked=0;connectable=1;" parent="1" vertex="1">
          <mxGeometry x="4413.91" y="-3029.6266666666666" width="125.99999999999999" height="20.26666666666667" as="geometry" />
        </mxCell>
        <mxCell id="BMpMJqY8s_4Y7fT_cOyo-892" value="" style="rounded=0;whiteSpace=wrap;html=1;shadow=0;movable=1;resizable=1;rotatable=1;deletable=1;editable=1;locked=0;connectable=1;" parent="1" vertex="1">
          <mxGeometry x="4113.186363636364" y="-3243.544415584415" width="372.2727272727272" height="128.31168831168836" as="geometry" />
        </mxCell>
        <mxCell id="BMpMJqY8s_4Y7fT_cOyo-893" value="(Текущее обучение)" style="rounded=0;whiteSpace=wrap;html=1;align=right;shadow=0;movable=1;resizable=1;rotatable=1;deletable=1;editable=1;locked=0;connectable=1;" parent="1" vertex="1">
          <mxGeometry x="4127.5" y="-3233.675733333333" width="327.04999999999995" height="49.34933333333334" as="geometry" />
        </mxCell>
        <mxCell id="BMpMJqY8s_4Y7fT_cOyo-894" value="(Будущее обучение)" style="rounded=0;whiteSpace=wrap;html=1;align=right;shadow=0;movable=1;resizable=1;rotatable=1;deletable=1;editable=1;locked=0;connectable=1;" parent="1" vertex="1">
          <mxGeometry x="4127.5" y="-3174.456533333333" width="327.04999999999995" height="49.34933333333334" as="geometry" />
        </mxCell>
        <mxCell id="BMpMJqY8s_4Y7fT_cOyo-895" value="" style="verticalLabelPosition=bottom;shadow=0;dashed=0;align=center;html=1;verticalAlign=top;strokeWidth=1;shape=mxgraph.mockup.navigation.scrollBar;strokeColor=#000000;barPos=20;fillColor2=#008cff;strokeColor2=none;rotation=90;fontSize=12;movable=1;resizable=1;rotatable=1;deletable=1;editable=1;locked=0;connectable=1;" parent="1" vertex="1">
          <mxGeometry x="4412.55" y="-3189.6666666666665" width="125.99999999999999" height="20.26666666666667" as="geometry" />
        </mxCell>
        <mxCell id="BMpMJqY8s_4Y7fT_cOyo-896" value="" style="strokeWidth=1;shadow=0;dashed=0;align=center;html=1;shape=mxgraph.mockup.forms.comboBox;strokeColor=#999999;fillColor=#008cff;align=left;fillColor2=#008cff;mainText=;fontColor=#666666;fontSize=17;spacingLeft=3;gradientColor=none;fillStyle=auto;movable=1;resizable=1;rotatable=1;deletable=1;editable=1;locked=0;connectable=1;" parent="1" vertex="1">
          <mxGeometry x="3692.96" y="-2957.9399999999996" width="351.37" height="19.63" as="geometry" />
        </mxCell>
        <mxCell id="BMpMJqY8s_4Y7fT_cOyo-897" value="" style="strokeWidth=1;shadow=0;dashed=0;align=center;html=1;shape=mxgraph.mockup.forms.comboBox;strokeColor=#999999;fillColor=#008cff;align=left;fillColor2=#008cff;mainText=;fontColor=#666666;fontSize=17;spacingLeft=3;gradientColor=none;fillStyle=auto;movable=1;resizable=1;rotatable=1;deletable=1;editable=1;locked=0;connectable=1;" parent="1" vertex="1">
          <mxGeometry x="3692.28" y="-2911.3999999999996" width="351.37" height="19.63" as="geometry" />
        </mxCell>
        <mxCell id="BMpMJqY8s_4Y7fT_cOyo-898" value="начало - конец&amp;nbsp; &amp;nbsp; &amp;nbsp;Название события&lt;div&gt;&lt;span style=&quot;background-color: initial;&quot;&gt;Описание&lt;/span&gt;&lt;br&gt;&lt;/div&gt;" style="text;html=1;align=left;verticalAlign=top;whiteSpace=wrap;rounded=0;movable=1;resizable=1;rotatable=1;deletable=1;editable=1;locked=0;connectable=1;" parent="1" vertex="1">
          <mxGeometry x="4128.86" y="-3233.68" width="205.69" height="43.68" as="geometry" />
        </mxCell>
        <mxCell id="BMpMJqY8s_4Y7fT_cOyo-899" value="начало - конец&amp;nbsp; &amp;nbsp; &amp;nbsp;Название события&lt;div&gt;&lt;span style=&quot;background-color: initial;&quot;&gt;Описание&lt;/span&gt;&lt;br&gt;&lt;/div&gt;" style="text;html=1;align=left;verticalAlign=top;whiteSpace=wrap;rounded=0;movable=1;resizable=1;rotatable=1;deletable=1;editable=1;locked=0;connectable=1;" parent="1" vertex="1">
          <mxGeometry x="4127.5" y="-3174.46" width="205.69" height="43.68" as="geometry" />
        </mxCell>
        <mxCell id="BMpMJqY8s_4Y7fT_cOyo-900" value="начало - конец&lt;div&gt;&lt;span style=&quot;background-color: initial;&quot;&gt;Описание&lt;/span&gt;&lt;br&gt;&lt;/div&gt;" style="text;html=1;align=left;verticalAlign=top;whiteSpace=wrap;rounded=0;movable=1;resizable=1;rotatable=1;deletable=1;editable=1;locked=0;connectable=1;" parent="1" vertex="1">
          <mxGeometry x="4128.86" y="-3073.64" width="205.69" height="43.68" as="geometry" />
        </mxCell>
        <mxCell id="BMpMJqY8s_4Y7fT_cOyo-901" value="начало - конец&lt;div&gt;&lt;span style=&quot;background-color: initial;&quot;&gt;Описание&lt;/span&gt;&lt;br&gt;&lt;/div&gt;" style="text;html=1;align=left;verticalAlign=top;whiteSpace=wrap;rounded=0;movable=1;resizable=1;rotatable=1;deletable=1;editable=1;locked=0;connectable=1;" parent="1" vertex="1">
          <mxGeometry x="4128.86" y="-3014.42" width="205.69" height="43.68" as="geometry" />
        </mxCell>
        <mxCell id="BMpMJqY8s_4Y7fT_cOyo-902" value="начало - конец&lt;div&gt;&lt;span style=&quot;background-color: initial;&quot;&gt;Описание&lt;/span&gt;&lt;br&gt;&lt;/div&gt;" style="text;html=1;align=left;verticalAlign=top;whiteSpace=wrap;rounded=0;movable=1;resizable=1;rotatable=1;deletable=1;editable=1;locked=0;connectable=1;" parent="1" vertex="1">
          <mxGeometry x="4128.86" y="-2915.72" width="205.69" height="43.68" as="geometry" />
        </mxCell>
        <mxCell id="BMpMJqY8s_4Y7fT_cOyo-903" value="начало - конец&lt;div&gt;&lt;span style=&quot;background-color: initial;&quot;&gt;Описание&lt;/span&gt;&lt;br&gt;&lt;/div&gt;" style="text;html=1;align=left;verticalAlign=top;whiteSpace=wrap;rounded=0;movable=1;resizable=1;rotatable=1;deletable=1;editable=1;locked=0;connectable=1;" parent="1" vertex="1">
          <mxGeometry x="4128.86" y="-2856.5" width="205.69" height="43.68" as="geometry" />
        </mxCell>
        <mxCell id="BMpMJqY8s_4Y7fT_cOyo-904" value="" style="group;movable=1;resizable=1;rotatable=1;deletable=1;editable=1;locked=0;connectable=1;" parent="1" vertex="1" connectable="0">
          <mxGeometry x="2744.55" y="-3360.003333333333" width="839.9999999999998" height="760.0000000000005" as="geometry" />
        </mxCell>
        <mxCell id="BMpMJqY8s_4Y7fT_cOyo-905" value="" style="rounded=0;whiteSpace=wrap;html=1;fontColor=#999999;shadow=0;movable=1;resizable=1;rotatable=1;deletable=1;editable=1;locked=0;connectable=1;" parent="BMpMJqY8s_4Y7fT_cOyo-904" vertex="1">
          <mxGeometry width="839.9999999999998" height="760.0000000000005" as="geometry" />
        </mxCell>
        <mxCell id="BMpMJqY8s_4Y7fT_cOyo-906" value="Тип события" style="strokeWidth=1;shadow=0;dashed=0;align=center;html=1;shape=mxgraph.mockup.forms.comboBox;strokeColor=#999999;fillColor=#949494;align=left;fillColor2=#949494;mainText=;fontColor=#666666;fontSize=15;spacingLeft=3;fontStyle=0;movable=1;resizable=1;rotatable=1;deletable=1;editable=1;locked=0;connectable=1;" parent="BMpMJqY8s_4Y7fT_cOyo-904" vertex="1">
          <mxGeometry x="448.64000000000016" y="571.4633333333334" width="141.36" height="21.71" as="geometry" />
        </mxCell>
        <mxCell id="BMpMJqY8s_4Y7fT_cOyo-907" value="Текущие" style="strokeWidth=1;shadow=1;dashed=0;align=center;html=1;shape=mxgraph.mockup.buttons.button;strokeColor=#999999;fontColor=#ffffff;mainText=;buttonStyle=round;fontSize=17;fontStyle=1;fillColor=#008cff;whiteSpace=wrap;movable=1;resizable=1;rotatable=1;deletable=1;editable=1;locked=0;connectable=1;" parent="BMpMJqY8s_4Y7fT_cOyo-904" vertex="1">
          <mxGeometry x="572.7272727272721" y="16.893593073593138" width="114.54545454545452" height="49.35064935064937" as="geometry" />
        </mxCell>
        <mxCell id="BMpMJqY8s_4Y7fT_cOyo-908" value="Обучения" style="text;html=1;align=center;verticalAlign=middle;whiteSpace=wrap;rounded=0;shadow=0;fontColor=#666666;movable=1;resizable=1;rotatable=1;deletable=1;editable=1;locked=0;connectable=1;" parent="BMpMJqY8s_4Y7fT_cOyo-904" vertex="1">
          <mxGeometry x="448.6399999999995" y="73.65333333333342" width="61.36" height="32.07" as="geometry" />
        </mxCell>
        <mxCell id="BMpMJqY8s_4Y7fT_cOyo-909" value="Отгулы" style="text;html=1;align=center;verticalAlign=middle;whiteSpace=wrap;rounded=0;shadow=0;fontColor=#666666;movable=1;resizable=1;rotatable=1;deletable=1;editable=1;locked=0;connectable=1;" parent="BMpMJqY8s_4Y7fT_cOyo-904" vertex="1">
          <mxGeometry x="448.636363636364" y="234.03645021645048" width="57.27272727272726" height="29.610389610389625" as="geometry" />
        </mxCell>
        <mxCell id="BMpMJqY8s_4Y7fT_cOyo-910" value="" style="rounded=0;whiteSpace=wrap;html=1;shadow=0;strokeColor=#999999;movable=1;resizable=1;rotatable=1;deletable=1;editable=1;locked=0;connectable=1;" parent="BMpMJqY8s_4Y7fT_cOyo-904" vertex="1">
          <mxGeometry x="448.636363636364" y="421.56891774891824" width="372.2727272727272" height="128.31168831168836" as="geometry" />
        </mxCell>
        <mxCell id="BMpMJqY8s_4Y7fT_cOyo-911" value="Отпуска" style="text;html=1;align=center;verticalAlign=middle;whiteSpace=wrap;rounded=0;shadow=0;fontColor=#666666;movable=1;resizable=1;rotatable=1;deletable=1;editable=1;locked=0;connectable=1;" parent="BMpMJqY8s_4Y7fT_cOyo-904" vertex="1">
          <mxGeometry x="448.636363636364" y="391.95852813852866" width="57.27272727272726" height="29.610389610389625" as="geometry" />
        </mxCell>
        <mxCell id="BMpMJqY8s_4Y7fT_cOyo-912" value="(Текущий отпуск)" style="rounded=0;whiteSpace=wrap;html=1;align=right;shadow=0;strokeColor=#999999;fontColor=#666666;movable=1;resizable=1;rotatable=1;deletable=1;editable=1;locked=0;connectable=1;" parent="BMpMJqY8s_4Y7fT_cOyo-904" vertex="1">
          <mxGeometry x="462.9499999999999" y="431.43760000000043" width="327.04999999999995" height="49.34933333333334" as="geometry" />
        </mxCell>
        <mxCell id="BMpMJqY8s_4Y7fT_cOyo-913" value="(Будущий отпуск)" style="rounded=0;whiteSpace=wrap;html=1;align=right;shadow=0;strokeColor=#999999;fontColor=#666666;movable=1;resizable=1;rotatable=1;deletable=1;editable=1;locked=0;connectable=1;" parent="BMpMJqY8s_4Y7fT_cOyo-904" vertex="1">
          <mxGeometry x="462.9499999999999" y="490.65680000000043" width="327.04999999999995" height="49.34933333333334" as="geometry" />
        </mxCell>
        <mxCell id="BMpMJqY8s_4Y7fT_cOyo-914" value="Добавить событие" style="strokeWidth=1;shadow=1;dashed=0;align=center;html=1;shape=mxgraph.mockup.buttons.button;strokeColor=#999999;fontColor=#ffffff;mainText=;buttonStyle=round;fontSize=17;fontStyle=1;fillColor=#949494;whiteSpace=wrap;movable=1;resizable=1;rotatable=1;deletable=1;editable=1;locked=0;connectable=1;" parent="BMpMJqY8s_4Y7fT_cOyo-904" vertex="1">
          <mxGeometry x="450.00000000000006" y="697.9333333333336" width="370" height="29.22" as="geometry" />
        </mxCell>
        <mxCell id="BMpMJqY8s_4Y7fT_cOyo-915" value="Прошедшие" style="strokeWidth=1;shadow=1;dashed=0;align=center;html=1;shape=mxgraph.mockup.buttons.button;strokeColor=#999999;fontColor=#000000;mainText=;buttonStyle=round;fontSize=17;fontStyle=0;fillColor=#ffffff;whiteSpace=wrap;movable=1;resizable=1;rotatable=1;deletable=1;editable=1;locked=0;connectable=1;" parent="BMpMJqY8s_4Y7fT_cOyo-904" vertex="1">
          <mxGeometry x="448.636363636364" y="16.893593073593138" width="114.54545454545452" height="49.35064935064937" as="geometry" />
        </mxCell>
        <mxCell id="BMpMJqY8s_4Y7fT_cOyo-916" value="Будущие" style="strokeWidth=1;shadow=1;dashed=0;align=center;html=1;shape=mxgraph.mockup.buttons.button;strokeColor=#999999;fontColor=#ffffff;mainText=;buttonStyle=round;fontSize=17;fontStyle=1;fillColor=#008cff;whiteSpace=wrap;movable=1;resizable=1;rotatable=1;deletable=1;editable=1;locked=0;connectable=1;" parent="BMpMJqY8s_4Y7fT_cOyo-904" vertex="1">
          <mxGeometry x="696.818181818182" y="16.893593073593138" width="114.54545454545452" height="49.35064935064937" as="geometry" />
        </mxCell>
        <mxCell id="BMpMJqY8s_4Y7fT_cOyo-917" value="Уволить сотрудника" style="strokeWidth=1;shadow=1;dashed=0;align=center;html=1;shape=mxgraph.mockup.buttons.button;strokeColor=#999999;fontColor=#ffffff;mainText=;buttonStyle=round;fontSize=17;fontStyle=1;fillColor=#949494;whiteSpace=wrap;movable=1;resizable=1;rotatable=1;deletable=1;editable=1;locked=0;connectable=1;" parent="BMpMJqY8s_4Y7fT_cOyo-904" vertex="1">
          <mxGeometry x="29.199999999999875" y="696.6333333333334" width="341.59" height="29.61" as="geometry" />
        </mxCell>
        <mxCell id="BMpMJqY8s_4Y7fT_cOyo-918" value="Сохранить изменения" style="strokeWidth=1;shadow=1;dashed=0;align=center;html=1;shape=mxgraph.mockup.buttons.button;strokeColor=#999999;fontColor=#ffffff;mainText=;buttonStyle=round;fontSize=17;fontStyle=1;fillColor=#949494;whiteSpace=wrap;movable=1;resizable=1;rotatable=1;deletable=1;editable=1;locked=0;connectable=1;" parent="BMpMJqY8s_4Y7fT_cOyo-904" vertex="1">
          <mxGeometry x="29.199999999999875" y="657.1533333333334" width="341.59" height="29.61" as="geometry" />
        </mxCell>
        <mxCell id="BMpMJqY8s_4Y7fT_cOyo-919" value="" style="strokeColor=#616161;verticalLabelPosition=bottom;shadow=1;dashed=0;verticalAlign=top;strokeWidth=1;html=1;shape=mxgraph.mockup.misc.editIcon;fillColor=#008cff;fontColor=#949494;movable=1;resizable=1;rotatable=1;deletable=1;editable=1;locked=0;connectable=1;" parent="BMpMJqY8s_4Y7fT_cOyo-904" vertex="1">
          <mxGeometry x="9.995454545454834" y="9.453463203463343" width="28.63636363636363" height="29.610389610389625" as="geometry" />
        </mxCell>
        <mxCell id="BMpMJqY8s_4Y7fT_cOyo-920" value="Фамилия:" style="text;html=1;align=left;verticalAlign=middle;whiteSpace=wrap;rounded=0;fontColor=#666666;strokeColor=none;shadow=0;movable=1;resizable=1;rotatable=1;deletable=1;editable=1;locked=0;connectable=1;" parent="BMpMJqY8s_4Y7fT_cOyo-904" vertex="1">
          <mxGeometry x="30.000000000000057" y="47.823333333333494" width="350" height="18.42" as="geometry" />
        </mxCell>
        <mxCell id="BMpMJqY8s_4Y7fT_cOyo-921" value="Имя:" style="text;html=1;align=left;verticalAlign=middle;whiteSpace=wrap;rounded=0;fontColor=#66667f;shadow=0;movable=1;resizable=1;rotatable=1;deletable=1;editable=1;locked=0;connectable=1;" parent="BMpMJqY8s_4Y7fT_cOyo-904" vertex="1">
          <mxGeometry x="29.199999999999875" y="95.05333333333351" width="350" height="18.42" as="geometry" />
        </mxCell>
        <mxCell id="BMpMJqY8s_4Y7fT_cOyo-922" value="Отчество:" style="text;html=1;align=left;verticalAlign=middle;whiteSpace=wrap;rounded=0;fontColor=#66667f;shadow=0;movable=1;resizable=1;rotatable=1;deletable=1;editable=1;locked=0;connectable=1;" parent="BMpMJqY8s_4Y7fT_cOyo-904" vertex="1">
          <mxGeometry x="28.40999999999991" y="138.13333333333344" width="350" height="18.42" as="geometry" />
        </mxCell>
        <mxCell id="BMpMJqY8s_4Y7fT_cOyo-923" value="День рождения:" style="text;html=1;align=left;verticalAlign=middle;whiteSpace=wrap;rounded=0;fontColor=#66667f;shadow=0;movable=1;resizable=1;rotatable=1;deletable=1;editable=1;locked=0;connectable=1;" parent="BMpMJqY8s_4Y7fT_cOyo-904" vertex="1">
          <mxGeometry x="28.40999999999991" y="187.15333333333342" width="350" height="18.42" as="geometry" />
        </mxCell>
        <mxCell id="BMpMJqY8s_4Y7fT_cOyo-924" value="Мобильный телефон:" style="text;html=1;align=left;verticalAlign=middle;whiteSpace=wrap;rounded=0;fontColor=#66667f;shadow=0;movable=1;resizable=1;rotatable=1;deletable=1;editable=1;locked=0;connectable=1;" parent="BMpMJqY8s_4Y7fT_cOyo-904" vertex="1">
          <mxGeometry x="29.88999999999993" y="231.9233333333334" width="350" height="18.42" as="geometry" />
        </mxCell>
        <mxCell id="BMpMJqY8s_4Y7fT_cOyo-925" value="Рабочий телефон:" style="text;html=1;align=left;verticalAlign=middle;whiteSpace=wrap;rounded=0;fontColor=#66667f;shadow=0;movable=1;resizable=1;rotatable=1;deletable=1;editable=1;locked=0;connectable=1;" parent="BMpMJqY8s_4Y7fT_cOyo-904" vertex="1">
          <mxGeometry x="29.099999999999966" y="277.79333333333375" width="350" height="18.42" as="geometry" />
        </mxCell>
        <mxCell id="BMpMJqY8s_4Y7fT_cOyo-926" value="Почта:" style="text;html=1;align=left;verticalAlign=middle;whiteSpace=wrap;rounded=0;fontColor=#66667f;shadow=0;movable=1;resizable=1;rotatable=1;deletable=1;editable=1;locked=0;connectable=1;" parent="BMpMJqY8s_4Y7fT_cOyo-904" vertex="1">
          <mxGeometry x="29.090000000000202" y="322.86333333333346" width="350" height="18.42" as="geometry" />
        </mxCell>
        <mxCell id="BMpMJqY8s_4Y7fT_cOyo-927" value="Структурное отделение:" style="text;html=1;align=left;verticalAlign=middle;whiteSpace=wrap;rounded=0;fontColor=#66667f;shadow=0;movable=1;resizable=1;rotatable=1;deletable=1;editable=1;locked=0;connectable=1;" parent="BMpMJqY8s_4Y7fT_cOyo-904" vertex="1">
          <mxGeometry x="29.779999999999802" y="370.7933333333333" width="350" height="18.42" as="geometry" />
        </mxCell>
        <mxCell id="BMpMJqY8s_4Y7fT_cOyo-928" value="Должность:" style="text;html=1;align=left;verticalAlign=middle;whiteSpace=wrap;rounded=0;fontColor=#66667f;shadow=0;movable=1;resizable=1;rotatable=1;deletable=1;editable=1;locked=0;connectable=1;" parent="BMpMJqY8s_4Y7fT_cOyo-904" vertex="1">
          <mxGeometry x="30.69000000000011" y="417.3333333333337" width="350" height="18.42" as="geometry" />
        </mxCell>
        <mxCell id="BMpMJqY8s_4Y7fT_cOyo-929" value="Кабинет:" style="text;html=1;align=left;verticalAlign=middle;whiteSpace=wrap;rounded=0;fontColor=#666666;shadow=0;movable=1;resizable=1;rotatable=1;deletable=1;editable=1;locked=0;connectable=1;" parent="BMpMJqY8s_4Y7fT_cOyo-904" vertex="1">
          <mxGeometry x="29.199999999999875" y="467.25333333333333" width="350" height="18.42" as="geometry" />
        </mxCell>
        <mxCell id="BMpMJqY8s_4Y7fT_cOyo-930" value="дд.мм.гггг" style="strokeWidth=1;shadow=0;dashed=0;align=left;html=1;shape=mxgraph.mockup.forms.rrect;fillColor=#ffffff;rSize=0;fontColor=#666666;align=left;spacingLeft=3;strokeColor=#999999;movable=1;resizable=1;rotatable=1;deletable=1;editable=1;locked=0;connectable=1;" parent="BMpMJqY8s_4Y7fT_cOyo-904" vertex="1">
          <mxGeometry x="630" y="571.4701333333335" width="79.99999999999999" height="21.705600000000004" as="geometry" />
        </mxCell>
        <mxCell id="BMpMJqY8s_4Y7fT_cOyo-931" value="От:" style="text;html=1;align=left;verticalAlign=middle;whiteSpace=wrap;rounded=0;fontColor=#66667f;shadow=0;movable=1;resizable=1;rotatable=1;deletable=1;editable=1;locked=0;connectable=1;" parent="BMpMJqY8s_4Y7fT_cOyo-904" vertex="1">
          <mxGeometry x="605.4499999999998" y="571.4701333333335" width="24.549999999999997" height="23.549866666666667" as="geometry" />
        </mxCell>
        <mxCell id="BMpMJqY8s_4Y7fT_cOyo-932" value="дд.мм.гггг" style="strokeWidth=1;shadow=0;dashed=0;align=left;html=1;shape=mxgraph.mockup.forms.rrect;fillColor=#ffffff;rSize=0;fontColor=#666666;align=left;spacingLeft=3;strokeColor=#999999;movable=1;resizable=1;rotatable=1;deletable=1;editable=1;locked=0;connectable=1;" parent="BMpMJqY8s_4Y7fT_cOyo-904" vertex="1">
          <mxGeometry x="740.9099999999999" y="571.4701333333335" width="79.99999999999999" height="23.549866666666667" as="geometry" />
        </mxCell>
        <mxCell id="BMpMJqY8s_4Y7fT_cOyo-933" value="До:" style="text;html=1;align=left;verticalAlign=middle;whiteSpace=wrap;rounded=0;fontColor=#66667f;shadow=0;movable=1;resizable=1;rotatable=1;deletable=1;editable=1;locked=0;connectable=1;" parent="BMpMJqY8s_4Y7fT_cOyo-904" vertex="1">
          <mxGeometry x="716.3599999999997" y="571.4701333333335" width="23.639999999999997" height="23.549866666666667" as="geometry" />
        </mxCell>
        <mxCell id="BMpMJqY8s_4Y7fT_cOyo-934" value="" style="rounded=1;whiteSpace=wrap;html=1;fontColor=#666666;strokeColor=#999999;align=left;shadow=0;perimeterSpacing=0;movable=1;resizable=1;rotatable=1;deletable=1;editable=1;locked=0;connectable=1;" parent="BMpMJqY8s_4Y7fT_cOyo-904" vertex="1">
          <mxGeometry x="30.000000000000057" y="67.03333333333353" width="348.41" height="18.24" as="geometry" />
        </mxCell>
        <mxCell id="BMpMJqY8s_4Y7fT_cOyo-935" value="" style="rounded=1;whiteSpace=wrap;html=1;fontColor=#666666;strokeColor=#999999;align=left;shadow=0;perimeterSpacing=0;movable=1;resizable=1;rotatable=1;deletable=1;editable=1;locked=0;connectable=1;" parent="BMpMJqY8s_4Y7fT_cOyo-904" vertex="1">
          <mxGeometry x="29.210000000000093" y="113.47333333333358" width="348.41" height="18.24" as="geometry" />
        </mxCell>
        <mxCell id="BMpMJqY8s_4Y7fT_cOyo-936" value="" style="rounded=1;whiteSpace=wrap;html=1;fontColor=#666666;strokeColor=#999999;align=left;shadow=0;glass=0;movable=1;resizable=1;rotatable=1;deletable=1;editable=1;locked=0;connectable=1;" parent="BMpMJqY8s_4Y7fT_cOyo-904" vertex="1">
          <mxGeometry x="28.40999999999991" y="156.5533333333335" width="348.41" height="18.24" as="geometry" />
        </mxCell>
        <mxCell id="BMpMJqY8s_4Y7fT_cOyo-937" value="&amp;nbsp; &amp;nbsp;дд.мм.гггг" style="rounded=1;whiteSpace=wrap;html=1;fontColor=#666666;strokeColor=#999999;align=left;shadow=0;glass=0;movable=1;resizable=1;rotatable=1;deletable=1;editable=1;locked=0;connectable=1;" parent="BMpMJqY8s_4Y7fT_cOyo-904" vertex="1">
          <mxGeometry x="28.40999999999991" y="205.5833333333337" width="348.41" height="18.24" as="geometry" />
        </mxCell>
        <mxCell id="BMpMJqY8s_4Y7fT_cOyo-938" value="" style="rounded=1;whiteSpace=wrap;html=1;fontColor=#666666;strokeColor=#999999;align=left;shadow=0;glass=0;movable=1;resizable=1;rotatable=1;deletable=1;editable=1;locked=0;connectable=1;" parent="BMpMJqY8s_4Y7fT_cOyo-904" vertex="1">
          <mxGeometry x="29.88999999999993" y="250.34333333333348" width="348.41" height="18.24" as="geometry" />
        </mxCell>
        <mxCell id="BMpMJqY8s_4Y7fT_cOyo-939" value="" style="rounded=1;whiteSpace=wrap;html=1;fontColor=#666666;strokeColor=#999999;align=left;shadow=0;glass=0;movable=1;resizable=1;rotatable=1;deletable=1;editable=1;locked=0;connectable=1;" parent="BMpMJqY8s_4Y7fT_cOyo-904" vertex="1">
          <mxGeometry x="29.099999999999966" y="296.21333333333337" width="348.41" height="18.24" as="geometry" />
        </mxCell>
        <mxCell id="BMpMJqY8s_4Y7fT_cOyo-940" value="" style="rounded=1;whiteSpace=wrap;html=1;fontColor=#666666;strokeColor=#999999;align=left;shadow=0;glass=0;movable=1;resizable=1;rotatable=1;deletable=1;editable=1;locked=0;connectable=1;" parent="BMpMJqY8s_4Y7fT_cOyo-904" vertex="1">
          <mxGeometry x="29.090000000000202" y="341.28333333333353" width="348.41" height="18.24" as="geometry" />
        </mxCell>
        <mxCell id="BMpMJqY8s_4Y7fT_cOyo-941" value="" style="rounded=1;whiteSpace=wrap;html=1;fontColor=#666666;strokeColor=#999999;align=left;shadow=0;glass=0;movable=1;resizable=1;rotatable=1;deletable=1;editable=1;locked=0;connectable=1;" parent="BMpMJqY8s_4Y7fT_cOyo-904" vertex="1">
          <mxGeometry x="29.199999999999875" y="485.6733333333334" width="348.41" height="18.24" as="geometry" />
        </mxCell>
        <mxCell id="BMpMJqY8s_4Y7fT_cOyo-942" value="" style="verticalLabelPosition=bottom;shadow=0;dashed=0;align=center;html=1;verticalAlign=top;strokeWidth=1;shape=mxgraph.mockup.navigation.scrollBar;strokeColor=#000000;barPos=20;fillColor2=#008cff;strokeColor2=none;rotation=90;fontSize=12;movable=1;resizable=1;rotatable=1;deletable=1;editable=1;locked=0;connectable=1;" parent="BMpMJqY8s_4Y7fT_cOyo-904" vertex="1">
          <mxGeometry x="748" y="475.5866666666668" width="125.99999999999999" height="20.26666666666667" as="geometry" />
        </mxCell>
        <mxCell id="BMpMJqY8s_4Y7fT_cOyo-943" value="" style="rounded=0;whiteSpace=wrap;html=1;shadow=0;strokeColor=#999999;movable=1;resizable=1;rotatable=1;deletable=1;editable=1;locked=0;connectable=1;" parent="BMpMJqY8s_4Y7fT_cOyo-904" vertex="1">
          <mxGeometry x="449.9963636363637" y="263.64891774891817" width="372.2727272727272" height="128.31168831168836" as="geometry" />
        </mxCell>
        <mxCell id="BMpMJqY8s_4Y7fT_cOyo-944" value="(Текущий отгул)" style="rounded=0;whiteSpace=wrap;html=1;align=right;shadow=0;strokeColor=#999999;fontColor=#666666;movable=1;resizable=1;rotatable=1;deletable=1;editable=1;locked=0;connectable=1;" parent="BMpMJqY8s_4Y7fT_cOyo-904" vertex="1">
          <mxGeometry x="464.30999999999955" y="273.51760000000036" width="327.04999999999995" height="49.34933333333334" as="geometry" />
        </mxCell>
        <mxCell id="BMpMJqY8s_4Y7fT_cOyo-945" value="(Будущий отгул)" style="rounded=0;whiteSpace=wrap;html=1;align=right;shadow=0;strokeColor=#999999;fontColor=#666666;movable=1;resizable=1;rotatable=1;deletable=1;editable=1;locked=0;connectable=1;" parent="BMpMJqY8s_4Y7fT_cOyo-904" vertex="1">
          <mxGeometry x="464.30999999999955" y="332.73680000000036" width="327.04999999999995" height="49.34933333333334" as="geometry" />
        </mxCell>
        <mxCell id="BMpMJqY8s_4Y7fT_cOyo-946" value="" style="verticalLabelPosition=bottom;shadow=0;dashed=0;align=center;html=1;verticalAlign=top;strokeWidth=1;shape=mxgraph.mockup.navigation.scrollBar;strokeColor=#000000;barPos=20;fillColor2=#008cff;strokeColor2=none;rotation=90;fontSize=12;movable=1;resizable=1;rotatable=1;deletable=1;editable=1;locked=0;connectable=1;" parent="BMpMJqY8s_4Y7fT_cOyo-904" vertex="1">
          <mxGeometry x="749.3599999999997" y="317.52666666666687" width="125.99999999999999" height="20.26666666666667" as="geometry" />
        </mxCell>
        <mxCell id="BMpMJqY8s_4Y7fT_cOyo-947" value="" style="rounded=0;whiteSpace=wrap;html=1;shadow=0;strokeColor=#999999;movable=1;resizable=1;rotatable=1;deletable=1;editable=1;locked=0;connectable=1;" parent="BMpMJqY8s_4Y7fT_cOyo-904" vertex="1">
          <mxGeometry x="448.636363636364" y="103.6089177489182" width="372.2727272727272" height="128.31168831168836" as="geometry" />
        </mxCell>
        <mxCell id="BMpMJqY8s_4Y7fT_cOyo-948" value="(Текущее обучение)" style="rounded=0;whiteSpace=wrap;html=1;align=right;shadow=0;strokeColor=#999999;fontColor=#666666;movable=1;resizable=1;rotatable=1;deletable=1;editable=1;locked=0;connectable=1;" parent="BMpMJqY8s_4Y7fT_cOyo-904" vertex="1">
          <mxGeometry x="462.9499999999999" y="113.4776000000004" width="327.04999999999995" height="49.34933333333334" as="geometry" />
        </mxCell>
        <mxCell id="BMpMJqY8s_4Y7fT_cOyo-949" value="(Будущее обучение)" style="rounded=0;whiteSpace=wrap;html=1;align=right;shadow=0;strokeColor=#999999;fontColor=#666666;movable=1;resizable=1;rotatable=1;deletable=1;editable=1;locked=0;connectable=1;" parent="BMpMJqY8s_4Y7fT_cOyo-904" vertex="1">
          <mxGeometry x="462.9499999999999" y="172.6968000000004" width="327.04999999999995" height="49.34933333333334" as="geometry" />
        </mxCell>
        <mxCell id="BMpMJqY8s_4Y7fT_cOyo-950" value="" style="verticalLabelPosition=bottom;shadow=0;dashed=0;align=center;html=1;verticalAlign=top;strokeWidth=1;shape=mxgraph.mockup.navigation.scrollBar;strokeColor=#999999;barPos=20;fillColor2=#008cff;strokeColor2=none;rotation=90;fontSize=12;movable=1;resizable=1;rotatable=1;deletable=1;editable=1;locked=0;connectable=1;" parent="BMpMJqY8s_4Y7fT_cOyo-904" vertex="1">
          <mxGeometry x="748" y="157.4866666666669" width="125.99999999999999" height="20.26666666666667" as="geometry" />
        </mxCell>
        <mxCell id="BMpMJqY8s_4Y7fT_cOyo-951" value="" style="strokeWidth=1;shadow=0;dashed=0;align=center;html=1;shape=mxgraph.mockup.forms.comboBox;strokeColor=#999999;fillColor=#949494;align=left;fillColor2=#949494;mainText=;fontColor=#666666;fontSize=17;spacingLeft=3;gradientColor=none;fillStyle=auto;movable=1;resizable=1;rotatable=1;deletable=1;editable=1;locked=0;connectable=1;" parent="BMpMJqY8s_4Y7fT_cOyo-904" vertex="1">
          <mxGeometry x="28.40999999999991" y="389.21333333333337" width="351.37" height="19.63" as="geometry" />
        </mxCell>
        <mxCell id="BMpMJqY8s_4Y7fT_cOyo-952" value="" style="strokeWidth=1;shadow=0;dashed=0;align=center;html=1;shape=mxgraph.mockup.forms.comboBox;strokeColor=#999999;fillColor=#949494;align=left;fillColor2=#949494;mainText=;fontColor=#666666;fontSize=17;spacingLeft=3;gradientColor=none;fillStyle=auto;movable=1;resizable=1;rotatable=1;deletable=1;editable=1;locked=0;connectable=1;" parent="BMpMJqY8s_4Y7fT_cOyo-904" vertex="1">
          <mxGeometry x="27.730000000000075" y="435.7533333333338" width="351.37" height="19.63" as="geometry" />
        </mxCell>
        <mxCell id="BMpMJqY8s_4Y7fT_cOyo-953" value="начало - конец&amp;nbsp; &amp;nbsp; &amp;nbsp;Название события&lt;div&gt;&lt;span style=&quot;background-color: initial;&quot;&gt;Описание&lt;/span&gt;&lt;br&gt;&lt;/div&gt;" style="text;html=1;align=left;verticalAlign=top;whiteSpace=wrap;rounded=0;fontColor=#666666;movable=1;resizable=1;rotatable=1;deletable=1;editable=1;locked=0;connectable=1;" parent="BMpMJqY8s_4Y7fT_cOyo-904" vertex="1">
          <mxGeometry x="464.30999999999955" y="113.47333333333358" width="205.69" height="43.68" as="geometry" />
        </mxCell>
        <mxCell id="BMpMJqY8s_4Y7fT_cOyo-954" value="начало - конец&amp;nbsp; &amp;nbsp; &amp;nbsp;Название события&lt;div&gt;&lt;span style=&quot;background-color: initial;&quot;&gt;Описание&lt;/span&gt;&lt;br&gt;&lt;/div&gt;" style="text;html=1;align=left;verticalAlign=top;whiteSpace=wrap;rounded=0;fontColor=#666666;movable=1;resizable=1;rotatable=1;deletable=1;editable=1;locked=0;connectable=1;" parent="BMpMJqY8s_4Y7fT_cOyo-904" vertex="1">
          <mxGeometry x="462.9499999999999" y="172.69333333333338" width="205.69" height="43.68" as="geometry" />
        </mxCell>
        <mxCell id="BMpMJqY8s_4Y7fT_cOyo-955" value="начало - конец&lt;div&gt;&lt;span style=&quot;background-color: initial;&quot;&gt;Описание&lt;/span&gt;&lt;br&gt;&lt;/div&gt;" style="text;html=1;align=left;verticalAlign=top;whiteSpace=wrap;rounded=0;fontColor=#666666;movable=1;resizable=1;rotatable=1;deletable=1;editable=1;locked=0;connectable=1;" parent="BMpMJqY8s_4Y7fT_cOyo-904" vertex="1">
          <mxGeometry x="464.30999999999955" y="273.51333333333355" width="205.69" height="43.68" as="geometry" />
        </mxCell>
        <mxCell id="BMpMJqY8s_4Y7fT_cOyo-956" value="начало - конец&lt;div&gt;&lt;span style=&quot;background-color: initial;&quot;&gt;Описание&lt;/span&gt;&lt;br&gt;&lt;/div&gt;" style="text;html=1;align=left;verticalAlign=top;whiteSpace=wrap;rounded=0;fontColor=#666666;movable=1;resizable=1;rotatable=1;deletable=1;editable=1;locked=0;connectable=1;" parent="BMpMJqY8s_4Y7fT_cOyo-904" vertex="1">
          <mxGeometry x="464.30999999999955" y="332.73333333333335" width="205.69" height="43.68" as="geometry" />
        </mxCell>
        <mxCell id="BMpMJqY8s_4Y7fT_cOyo-957" value="начало - конец&lt;div&gt;&lt;span style=&quot;background-color: initial;&quot;&gt;Описание&lt;/span&gt;&lt;br&gt;&lt;/div&gt;" style="text;html=1;align=left;verticalAlign=top;whiteSpace=wrap;rounded=0;fontColor=#666666;movable=1;resizable=1;rotatable=1;deletable=1;editable=1;locked=0;connectable=1;" parent="BMpMJqY8s_4Y7fT_cOyo-904" vertex="1">
          <mxGeometry x="464.30999999999955" y="431.4333333333336" width="205.69" height="43.68" as="geometry" />
        </mxCell>
        <mxCell id="BMpMJqY8s_4Y7fT_cOyo-958" value="начало - конец&lt;div&gt;&lt;span style=&quot;background-color: initial;&quot;&gt;Описание&lt;/span&gt;&lt;br&gt;&lt;/div&gt;" style="text;html=1;align=left;verticalAlign=top;whiteSpace=wrap;rounded=0;fontColor=#666666;movable=1;resizable=1;rotatable=1;deletable=1;editable=1;locked=0;connectable=1;" parent="BMpMJqY8s_4Y7fT_cOyo-904" vertex="1">
          <mxGeometry x="464.30999999999955" y="490.6533333333334" width="205.69" height="43.68" as="geometry" />
        </mxCell>
        <mxCell id="BMpMJqY8s_4Y7fT_cOyo-959" value="" style="endArrow=none;html=1;rounded=0;entryX=0.5;entryY=0;entryDx=0;entryDy=0;exitX=0.5;exitY=1;exitDx=0;exitDy=0;shadow=0;movable=1;resizable=1;rotatable=1;deletable=1;editable=1;locked=0;connectable=1;" parent="BMpMJqY8s_4Y7fT_cOyo-904" source="BMpMJqY8s_4Y7fT_cOyo-905" target="BMpMJqY8s_4Y7fT_cOyo-905" edge="1">
          <mxGeometry width="50" height="50" relative="1" as="geometry">
            <mxPoint x="439.09090909090907" y="441.30917748917796" as="sourcePoint" />
            <mxPoint x="486.81818181818204" y="391.95852813852866" as="targetPoint" />
          </mxGeometry>
        </mxCell>
        <mxCell id="BMpMJqY8s_4Y7fT_cOyo-960" value="Описание события..." style="rounded=0;whiteSpace=wrap;html=1;shadow=0;strokeColor=#999999;fontColor=#666666;movable=1;resizable=1;rotatable=1;deletable=1;editable=1;locked=0;connectable=1;align=left;verticalAlign=top;" parent="BMpMJqY8s_4Y7fT_cOyo-904" vertex="1">
          <mxGeometry x="448.6399999999995" y="607.8033333333337" width="371.36" height="78.96" as="geometry" />
        </mxCell>
        <mxCell id="BMpMJqY8s_4Y7fT_cOyo-967" value="Окно &quot;Организационной структуры&quot;&amp;nbsp;&lt;div&gt;&lt;br&gt;&lt;/div&gt;&lt;div&gt;Отображает раскрытое древо отделений структурой древа&lt;/div&gt;" style="text;html=1;align=left;verticalAlign=top;whiteSpace=wrap;rounded=0;movable=1;resizable=1;rotatable=1;deletable=1;editable=1;locked=0;connectable=1;" parent="1" vertex="1">
          <mxGeometry x="39.999999999999986" y="-3470" width="510" height="70" as="geometry" />
        </mxCell>
        <mxCell id="BMpMJqY8s_4Y7fT_cOyo-969" value="Окно &quot;Карточка сотрудника&quot; в режиме просмотра&lt;div&gt;&lt;br&gt;&lt;/div&gt;&lt;div&gt;Отображает данные сотрудника и события в которых он учавтсует&lt;/div&gt;&lt;div&gt;&lt;br&gt;&lt;/div&gt;" style="text;html=1;align=left;verticalAlign=top;whiteSpace=wrap;rounded=0;movable=1;resizable=1;rotatable=1;deletable=1;editable=1;locked=0;connectable=1;" parent="1" vertex="1">
          <mxGeometry x="2744.55" y="-3440" width="510" height="70" as="geometry" />
        </mxCell>
        <mxCell id="BMpMJqY8s_4Y7fT_cOyo-970" value="Окно &quot;Карточка сотрудника&quot; в режиме редактирования&lt;div&gt;&lt;br&gt;&lt;/div&gt;&lt;div&gt;Отображает данные сотрудника доступные для изменения и события в которых он учавтсует&lt;br&gt;&lt;/div&gt;&lt;div&gt;&lt;br&gt;&lt;/div&gt;" style="text;html=1;align=left;verticalAlign=top;whiteSpace=wrap;rounded=0;movable=1;resizable=1;rotatable=1;deletable=1;editable=1;locked=0;connectable=1;" parent="1" vertex="1">
          <mxGeometry x="3664.55" y="-3450" width="510" height="90" as="geometry" />
        </mxCell>
        <mxCell id="BMpMJqY8s_4Y7fT_cOyo-971" value="" style="endArrow=classic;html=1;rounded=0;strokeColor=#d31d1d;strokeWidth=3;movable=1;resizable=1;rotatable=1;deletable=1;editable=1;locked=0;connectable=1;" parent="1" edge="1">
          <mxGeometry width="50" height="50" relative="1" as="geometry">
            <mxPoint x="204.55" y="-3042.41" as="sourcePoint" />
            <mxPoint x="1374.55" y="-3042.41" as="targetPoint" />
          </mxGeometry>
        </mxCell>
        <mxCell id="BMpMJqY8s_4Y7fT_cOyo-972" value="" style="endArrow=classic;html=1;rounded=0;strokeColor=#d31d1d;strokeWidth=3;movable=1;resizable=1;rotatable=1;deletable=1;editable=1;locked=0;connectable=1;" parent="1" edge="1">
          <mxGeometry width="50" height="50" relative="1" as="geometry">
            <mxPoint x="2524.55" y="-3160" as="sourcePoint" />
            <mxPoint x="2734.55" y="-3160" as="targetPoint" />
          </mxGeometry>
        </mxCell>
        <mxCell id="BMpMJqY8s_4Y7fT_cOyo-973" value="" style="endArrow=classic;html=1;rounded=0;strokeColor=#d31d1d;strokeWidth=3;movable=1;resizable=1;rotatable=1;deletable=1;editable=1;locked=0;connectable=1;" parent="1" edge="1">
          <mxGeometry width="50" height="50" relative="1" as="geometry">
            <mxPoint x="2654.55" y="-2600" as="sourcePoint" />
            <mxPoint x="2414.55" y="-2280" as="targetPoint" />
            <Array as="points">
              <mxPoint x="2654.55" y="-2280" />
            </Array>
          </mxGeometry>
        </mxCell>
        <mxCell id="BMpMJqY8s_4Y7fT_cOyo-974" value="" style="endArrow=classic;html=1;rounded=0;strokeColor=#d31d1d;strokeWidth=3;movable=1;resizable=1;rotatable=1;deletable=1;editable=1;locked=0;connectable=1;" parent="1" edge="1">
          <mxGeometry width="50" height="50" relative="1" as="geometry">
            <mxPoint x="2774.55" y="-3330" as="sourcePoint" />
            <mxPoint x="3634.55" y="-3330" as="targetPoint" />
          </mxGeometry>
        </mxCell>
        <mxCell id="BMpMJqY8s_4Y7fT_cOyo-975" value="" style="endArrow=classic;html=1;rounded=0;strokeColor=#d31d1d;strokeWidth=3;movable=1;resizable=1;rotatable=1;deletable=1;editable=1;locked=0;connectable=1;" parent="1" edge="1">
          <mxGeometry width="50" height="50" relative="1" as="geometry">
            <mxPoint x="1294.55" y="-2600" as="sourcePoint" />
            <mxPoint x="1524.55" y="-2290" as="targetPoint" />
            <Array as="points">
              <mxPoint x="1294.55" y="-2290" />
            </Array>
          </mxGeometry>
        </mxCell>
        <mxCell id="BMpMJqY8s_4Y7fT_cOyo-976" value="" style="rounded=0;whiteSpace=wrap;html=1;fontColor=#999999;shadow=0;movable=1;resizable=1;rotatable=1;deletable=1;editable=1;locked=0;connectable=1;" parent="1" vertex="1">
          <mxGeometry x="1550" y="-2430.003333333333" width="839.9999999999998" height="760.0000000000005" as="geometry" />
        </mxCell>
        <mxCell id="BMpMJqY8s_4Y7fT_cOyo-977" value="" style="endArrow=none;html=1;rounded=0;entryX=0.5;entryY=0;entryDx=0;entryDy=0;exitX=0.5;exitY=1;exitDx=0;exitDy=0;shadow=0;movable=1;resizable=1;rotatable=1;deletable=1;editable=1;locked=0;connectable=1;" parent="1" source="BMpMJqY8s_4Y7fT_cOyo-976" target="BMpMJqY8s_4Y7fT_cOyo-976" edge="1">
          <mxGeometry width="50" height="50" relative="1" as="geometry">
            <mxPoint x="1989.090909090909" y="-1985.8441558441555" as="sourcePoint" />
            <mxPoint x="2036.8181818181822" y="-2035.1948051948048" as="targetPoint" />
          </mxGeometry>
        </mxCell>
        <mxCell id="BMpMJqY8s_4Y7fT_cOyo-978" value="Тип события" style="strokeWidth=1;shadow=0;dashed=0;align=center;html=1;shape=mxgraph.mockup.forms.comboBox;strokeColor=#999999;fillColor=#008cff;align=left;fillColor2=#008cff;mainText=;fontColor=#666666;fontSize=17;spacingLeft=3;movable=1;resizable=1;rotatable=1;deletable=1;editable=1;locked=0;connectable=1;" parent="1" vertex="1">
          <mxGeometry x="1998.6399999999994" y="-1853.8400000000001" width="141.36" height="21.71" as="geometry" />
        </mxCell>
        <mxCell id="BMpMJqY8s_4Y7fT_cOyo-979" value="Текущие" style="strokeWidth=1;shadow=1;dashed=0;align=center;html=1;shape=mxgraph.mockup.buttons.button;strokeColor=#666666;fontColor=#ffffff;mainText=;buttonStyle=round;fontSize=17;fontStyle=1;fillColor=#008cff;whiteSpace=wrap;movable=1;resizable=1;rotatable=1;deletable=1;editable=1;locked=0;connectable=1;" parent="1" vertex="1">
          <mxGeometry x="2122.727272727272" y="-2410.2597402597403" width="114.54545454545452" height="49.35064935064937" as="geometry" />
        </mxCell>
        <mxCell id="BMpMJqY8s_4Y7fT_cOyo-980" value="Обучения" style="text;html=1;align=center;verticalAlign=middle;whiteSpace=wrap;rounded=0;shadow=0;movable=1;resizable=1;rotatable=1;deletable=1;editable=1;locked=0;connectable=1;" parent="1" vertex="1">
          <mxGeometry x="1998.636363636364" y="-2351.0389610389607" width="57.27272727272726" height="29.610389610389625" as="geometry" />
        </mxCell>
        <mxCell id="BMpMJqY8s_4Y7fT_cOyo-981" value="Отгулы" style="text;html=1;align=center;verticalAlign=middle;whiteSpace=wrap;rounded=0;shadow=0;movable=1;resizable=1;rotatable=1;deletable=1;editable=1;locked=0;connectable=1;" parent="1" vertex="1">
          <mxGeometry x="1998.636363636364" y="-2193.1168831168825" width="57.27272727272726" height="29.610389610389625" as="geometry" />
        </mxCell>
        <mxCell id="BMpMJqY8s_4Y7fT_cOyo-982" value="" style="rounded=0;whiteSpace=wrap;html=1;shadow=0;movable=1;resizable=1;rotatable=1;deletable=1;editable=1;locked=0;connectable=1;" parent="1" vertex="1">
          <mxGeometry x="1998.636363636364" y="-2005.5844155844152" width="372.2727272727272" height="128.31168831168836" as="geometry" />
        </mxCell>
        <mxCell id="BMpMJqY8s_4Y7fT_cOyo-983" value="Отпуска" style="text;html=1;align=center;verticalAlign=middle;whiteSpace=wrap;rounded=0;shadow=0;movable=1;resizable=1;rotatable=1;deletable=1;editable=1;locked=0;connectable=1;" parent="1" vertex="1">
          <mxGeometry x="1998.636363636364" y="-2035.1948051948048" width="57.27272727272726" height="29.610389610389625" as="geometry" />
        </mxCell>
        <mxCell id="BMpMJqY8s_4Y7fT_cOyo-986" value="Описание события..." style="rounded=0;whiteSpace=wrap;html=1;shadow=0;movable=1;resizable=1;rotatable=1;deletable=1;editable=1;locked=0;connectable=1;verticalAlign=top;align=left;" parent="1" vertex="1">
          <mxGeometry x="1998.6399999999994" y="-1818.0499999999997" width="371.36" height="78.96" as="geometry" />
        </mxCell>
        <mxCell id="BMpMJqY8s_4Y7fT_cOyo-987" value="Добавить событие" style="strokeWidth=1;shadow=1;dashed=0;align=center;html=1;shape=mxgraph.mockup.buttons.button;strokeColor=#000000;fontColor=#ffffff;mainText=;buttonStyle=round;fontSize=17;fontStyle=1;fillColor=#bdbdbd;whiteSpace=wrap;movable=1;resizable=1;rotatable=1;deletable=1;editable=1;locked=0;connectable=1;" parent="1" vertex="1">
          <mxGeometry x="2000" y="-1729.2199999999998" width="370" height="29.22" as="geometry" />
        </mxCell>
        <mxCell id="BMpMJqY8s_4Y7fT_cOyo-988" value="Прошедшие" style="strokeWidth=1;shadow=1;dashed=0;align=center;html=1;shape=mxgraph.mockup.buttons.button;strokeColor=#666666;fontColor=#000000;mainText=;buttonStyle=round;fontSize=17;fontStyle=0;fillColor=#ffffff;whiteSpace=wrap;movable=1;resizable=1;rotatable=1;deletable=1;editable=1;locked=0;connectable=1;" parent="1" vertex="1">
          <mxGeometry x="1998.636363636364" y="-2410.2597402597403" width="114.54545454545452" height="49.35064935064937" as="geometry" />
        </mxCell>
        <mxCell id="BMpMJqY8s_4Y7fT_cOyo-989" value="Будущие" style="strokeWidth=1;shadow=1;dashed=0;align=center;html=1;shape=mxgraph.mockup.buttons.button;strokeColor=#666666;fontColor=#ffffff;mainText=;buttonStyle=round;fontSize=17;fontStyle=1;fillColor=#008cff;whiteSpace=wrap;movable=1;resizable=1;rotatable=1;deletable=1;editable=1;locked=0;connectable=1;" parent="1" vertex="1">
          <mxGeometry x="2246.818181818182" y="-2410.2597402597403" width="114.54545454545452" height="49.35064935064937" as="geometry" />
        </mxCell>
        <mxCell id="BMpMJqY8s_4Y7fT_cOyo-991" value="Добавить сотрудника" style="strokeWidth=1;shadow=1;dashed=0;align=center;html=1;shape=mxgraph.mockup.buttons.button;strokeColor=#000000;fontColor=#ffffff;mainText=;buttonStyle=round;fontSize=17;fontStyle=1;fillColor=#008cff;whiteSpace=wrap;movable=1;resizable=1;rotatable=1;deletable=1;editable=1;locked=0;connectable=1;" parent="1" vertex="1">
          <mxGeometry x="1584.8999999999996" y="-1729.22" width="341.59" height="29.61" as="geometry" />
        </mxCell>
        <mxCell id="BMpMJqY8s_4Y7fT_cOyo-992" value="" style="strokeColor=#616161;verticalLabelPosition=bottom;shadow=1;dashed=0;verticalAlign=top;strokeWidth=1;html=1;shape=mxgraph.mockup.misc.editIcon;fillColor=#bdbdbd;fontColor=#949494;movable=1;resizable=1;rotatable=1;deletable=1;editable=1;locked=0;connectable=1;" parent="1" vertex="1">
          <mxGeometry x="1559.9954545454548" y="-2417.69987012987" width="28.63636363636363" height="29.610389610389625" as="geometry" />
        </mxCell>
        <mxCell id="BMpMJqY8s_4Y7fT_cOyo-993" value="Фамилия:" style="text;html=1;align=left;verticalAlign=middle;whiteSpace=wrap;rounded=0;fontColor=#666666;strokeColor=none;shadow=0;movable=1;resizable=1;rotatable=1;deletable=1;editable=1;locked=0;connectable=1;" parent="1" vertex="1">
          <mxGeometry x="1580" y="-2379.33" width="350" height="18.42" as="geometry" />
        </mxCell>
        <mxCell id="BMpMJqY8s_4Y7fT_cOyo-994" value="Имя:" style="text;html=1;align=left;verticalAlign=middle;whiteSpace=wrap;rounded=0;fontColor=#66667f;shadow=0;movable=1;resizable=1;rotatable=1;deletable=1;editable=1;locked=0;connectable=1;" parent="1" vertex="1">
          <mxGeometry x="1579.1999999999998" y="-2332.1" width="350" height="18.42" as="geometry" />
        </mxCell>
        <mxCell id="BMpMJqY8s_4Y7fT_cOyo-995" value="Отчество:" style="text;html=1;align=left;verticalAlign=middle;whiteSpace=wrap;rounded=0;fontColor=#66667f;shadow=0;movable=1;resizable=1;rotatable=1;deletable=1;editable=1;locked=0;connectable=1;" parent="1" vertex="1">
          <mxGeometry x="1578.4099999999999" y="-2289.0199999999995" width="350" height="18.42" as="geometry" />
        </mxCell>
        <mxCell id="BMpMJqY8s_4Y7fT_cOyo-996" value="День рождения:" style="text;html=1;align=left;verticalAlign=middle;whiteSpace=wrap;rounded=0;fontColor=#66667f;shadow=0;movable=1;resizable=1;rotatable=1;deletable=1;editable=1;locked=0;connectable=1;" parent="1" vertex="1">
          <mxGeometry x="1578.4099999999999" y="-2240" width="350" height="18.42" as="geometry" />
        </mxCell>
        <mxCell id="BMpMJqY8s_4Y7fT_cOyo-997" value="Мобильный телефон:" style="text;html=1;align=left;verticalAlign=middle;whiteSpace=wrap;rounded=0;fontColor=#66667f;shadow=0;movable=1;resizable=1;rotatable=1;deletable=1;editable=1;locked=0;connectable=1;" parent="1" vertex="1">
          <mxGeometry x="1579.8899999999999" y="-2195.2299999999996" width="350" height="18.42" as="geometry" />
        </mxCell>
        <mxCell id="BMpMJqY8s_4Y7fT_cOyo-998" value="Рабочий телефон:" style="text;html=1;align=left;verticalAlign=middle;whiteSpace=wrap;rounded=0;fontColor=#66667f;shadow=0;movable=1;resizable=1;rotatable=1;deletable=1;editable=1;locked=0;connectable=1;" parent="1" vertex="1">
          <mxGeometry x="1579.1" y="-2149.3599999999997" width="350" height="18.42" as="geometry" />
        </mxCell>
        <mxCell id="BMpMJqY8s_4Y7fT_cOyo-999" value="Почта:" style="text;html=1;align=left;verticalAlign=middle;whiteSpace=wrap;rounded=0;fontColor=#66667f;shadow=0;movable=1;resizable=1;rotatable=1;deletable=1;editable=1;locked=0;connectable=1;" parent="1" vertex="1">
          <mxGeometry x="1579.0900000000001" y="-2104.29" width="350" height="18.42" as="geometry" />
        </mxCell>
        <mxCell id="BMpMJqY8s_4Y7fT_cOyo-1000" value="Структурное отделение:" style="text;html=1;align=left;verticalAlign=middle;whiteSpace=wrap;rounded=0;fontColor=#66667f;shadow=0;movable=1;resizable=1;rotatable=1;deletable=1;editable=1;locked=0;connectable=1;" parent="1" vertex="1">
          <mxGeometry x="1579.7799999999997" y="-2056.3599999999997" width="350" height="18.42" as="geometry" />
        </mxCell>
        <mxCell id="BMpMJqY8s_4Y7fT_cOyo-1001" value="Должность:" style="text;html=1;align=left;verticalAlign=middle;whiteSpace=wrap;rounded=0;fontColor=#66667f;shadow=0;movable=1;resizable=1;rotatable=1;deletable=1;editable=1;locked=0;connectable=1;" parent="1" vertex="1">
          <mxGeometry x="1580.69" y="-2009.8199999999997" width="350" height="18.42" as="geometry" />
        </mxCell>
        <mxCell id="BMpMJqY8s_4Y7fT_cOyo-1002" value="Кабинет:" style="text;html=1;align=left;verticalAlign=middle;whiteSpace=wrap;rounded=0;fontColor=#66667f;shadow=0;movable=1;resizable=1;rotatable=1;deletable=1;editable=1;locked=0;connectable=1;" parent="1" vertex="1">
          <mxGeometry x="1579.1999999999998" y="-1959.8999999999996" width="350" height="18.42" as="geometry" />
        </mxCell>
        <mxCell id="BMpMJqY8s_4Y7fT_cOyo-1003" value="дд.мм.гггг" style="strokeWidth=1;shadow=0;dashed=0;align=left;html=1;shape=mxgraph.mockup.forms.rrect;fillColor=#ffffff;rSize=0;fontColor=#666666;align=left;spacingLeft=3;strokeColor=#999999;movable=1;resizable=1;rotatable=1;deletable=1;editable=1;locked=0;connectable=1;" parent="1" vertex="1">
          <mxGeometry x="2180" y="-1855.6831999999995" width="79.99999999999999" height="21.705600000000004" as="geometry" />
        </mxCell>
        <mxCell id="BMpMJqY8s_4Y7fT_cOyo-1004" value="От:" style="text;html=1;align=left;verticalAlign=middle;whiteSpace=wrap;rounded=0;fontColor=#66667f;shadow=0;movable=1;resizable=1;rotatable=1;deletable=1;editable=1;locked=0;connectable=1;" parent="1" vertex="1">
          <mxGeometry x="2155.45" y="-1855.6831999999995" width="24.549999999999997" height="23.549866666666667" as="geometry" />
        </mxCell>
        <mxCell id="BMpMJqY8s_4Y7fT_cOyo-1005" value="дд.мм.гггг" style="strokeWidth=1;shadow=0;dashed=0;align=left;html=1;shape=mxgraph.mockup.forms.rrect;fillColor=#ffffff;rSize=0;fontColor=#666666;align=left;spacingLeft=3;strokeColor=#999999;movable=1;resizable=1;rotatable=1;deletable=1;editable=1;locked=0;connectable=1;" parent="1" vertex="1">
          <mxGeometry x="2290.91" y="-1855.6831999999995" width="79.99999999999999" height="23.549866666666667" as="geometry" />
        </mxCell>
        <mxCell id="BMpMJqY8s_4Y7fT_cOyo-1006" value="До:" style="text;html=1;align=left;verticalAlign=middle;whiteSpace=wrap;rounded=0;fontColor=#66667f;shadow=0;movable=1;resizable=1;rotatable=1;deletable=1;editable=1;locked=0;connectable=1;" parent="1" vertex="1">
          <mxGeometry x="2266.3599999999997" y="-1855.6831999999995" width="23.639999999999997" height="23.549866666666667" as="geometry" />
        </mxCell>
        <mxCell id="BMpMJqY8s_4Y7fT_cOyo-1007" value="" style="rounded=1;whiteSpace=wrap;html=1;fontColor=#666666;strokeColor=#999999;align=left;shadow=0;perimeterSpacing=0;movable=1;resizable=1;rotatable=1;deletable=1;editable=1;locked=0;connectable=1;" parent="1" vertex="1">
          <mxGeometry x="1580" y="-2360.12" width="348.41" height="18.24" as="geometry" />
        </mxCell>
        <mxCell id="BMpMJqY8s_4Y7fT_cOyo-1008" value="" style="rounded=1;whiteSpace=wrap;html=1;fontColor=#666666;strokeColor=#999999;align=left;shadow=0;perimeterSpacing=0;movable=1;resizable=1;rotatable=1;deletable=1;editable=1;locked=0;connectable=1;" parent="1" vertex="1">
          <mxGeometry x="1579.21" y="-2313.68" width="348.41" height="18.24" as="geometry" />
        </mxCell>
        <mxCell id="BMpMJqY8s_4Y7fT_cOyo-1009" value="" style="rounded=1;whiteSpace=wrap;html=1;fontColor=#666666;strokeColor=#999999;align=left;shadow=0;glass=0;movable=1;resizable=1;rotatable=1;deletable=1;editable=1;locked=0;connectable=1;" parent="1" vertex="1">
          <mxGeometry x="1578.4099999999999" y="-2270.6" width="348.41" height="18.24" as="geometry" />
        </mxCell>
        <mxCell id="BMpMJqY8s_4Y7fT_cOyo-1010" value="&amp;nbsp; &amp;nbsp;дд.мм.гггг" style="rounded=1;whiteSpace=wrap;html=1;fontColor=#666666;strokeColor=#999999;align=left;shadow=0;glass=0;movable=1;resizable=1;rotatable=1;deletable=1;editable=1;locked=0;connectable=1;" parent="1" vertex="1">
          <mxGeometry x="1578.4099999999999" y="-2221.5699999999997" width="348.41" height="18.24" as="geometry" />
        </mxCell>
        <mxCell id="BMpMJqY8s_4Y7fT_cOyo-1011" value="" style="rounded=1;whiteSpace=wrap;html=1;fontColor=#666666;strokeColor=#999999;align=left;shadow=0;glass=0;movable=1;resizable=1;rotatable=1;deletable=1;editable=1;locked=0;connectable=1;" parent="1" vertex="1">
          <mxGeometry x="1579.8899999999999" y="-2176.8099999999995" width="348.41" height="18.24" as="geometry" />
        </mxCell>
        <mxCell id="BMpMJqY8s_4Y7fT_cOyo-1012" value="" style="rounded=1;whiteSpace=wrap;html=1;fontColor=#666666;strokeColor=#999999;align=left;shadow=0;glass=0;movable=1;resizable=1;rotatable=1;deletable=1;editable=1;locked=0;connectable=1;" parent="1" vertex="1">
          <mxGeometry x="1579.1" y="-2130.9399999999996" width="348.41" height="18.24" as="geometry" />
        </mxCell>
        <mxCell id="BMpMJqY8s_4Y7fT_cOyo-1013" value="" style="rounded=1;whiteSpace=wrap;html=1;fontColor=#666666;strokeColor=#999999;align=left;shadow=0;glass=0;movable=1;resizable=1;rotatable=1;deletable=1;editable=1;locked=0;connectable=1;" parent="1" vertex="1">
          <mxGeometry x="1579.0900000000001" y="-2085.87" width="348.41" height="18.24" as="geometry" />
        </mxCell>
        <mxCell id="BMpMJqY8s_4Y7fT_cOyo-1014" value="" style="rounded=1;whiteSpace=wrap;html=1;fontColor=#666666;strokeColor=#999999;align=left;shadow=0;glass=0;movable=1;resizable=1;rotatable=1;deletable=1;editable=1;locked=0;connectable=1;" parent="1" vertex="1">
          <mxGeometry x="1579.1999999999998" y="-1941.4799999999996" width="348.41" height="18.24" as="geometry" />
        </mxCell>
        <mxCell id="BMpMJqY8s_4Y7fT_cOyo-1015" value="" style="verticalLabelPosition=bottom;shadow=0;dashed=0;align=center;html=1;verticalAlign=top;strokeWidth=1;shape=mxgraph.mockup.navigation.scrollBar;strokeColor=#000000;barPos=20;fillColor2=#008cff;strokeColor2=none;rotation=90;fontSize=12;movable=1;resizable=1;rotatable=1;deletable=1;editable=1;locked=0;connectable=1;" parent="1" vertex="1">
          <mxGeometry x="2298" y="-1951.5666666666666" width="125.99999999999999" height="20.26666666666667" as="geometry" />
        </mxCell>
        <mxCell id="BMpMJqY8s_4Y7fT_cOyo-1016" value="" style="rounded=0;whiteSpace=wrap;html=1;shadow=0;movable=1;resizable=1;rotatable=1;deletable=1;editable=1;locked=0;connectable=1;" parent="1" vertex="1">
          <mxGeometry x="1999.9963636363636" y="-2163.5044155844153" width="372.2727272727272" height="128.31168831168836" as="geometry" />
        </mxCell>
        <mxCell id="BMpMJqY8s_4Y7fT_cOyo-1019" value="" style="verticalLabelPosition=bottom;shadow=0;dashed=0;align=center;html=1;verticalAlign=top;strokeWidth=1;shape=mxgraph.mockup.navigation.scrollBar;strokeColor=#000000;barPos=20;fillColor2=#008cff;strokeColor2=none;rotation=90;fontSize=12;movable=1;resizable=1;rotatable=1;deletable=1;editable=1;locked=0;connectable=1;" parent="1" vertex="1">
          <mxGeometry x="2299.3599999999997" y="-2109.6266666666666" width="125.99999999999999" height="20.26666666666667" as="geometry" />
        </mxCell>
        <mxCell id="BMpMJqY8s_4Y7fT_cOyo-1020" value="" style="rounded=0;whiteSpace=wrap;html=1;shadow=0;movable=1;resizable=1;rotatable=1;deletable=1;editable=1;locked=0;connectable=1;" parent="1" vertex="1">
          <mxGeometry x="1998.636363636364" y="-2323.544415584415" width="372.2727272727272" height="128.31168831168836" as="geometry" />
        </mxCell>
        <mxCell id="BMpMJqY8s_4Y7fT_cOyo-1023" value="" style="verticalLabelPosition=bottom;shadow=0;dashed=0;align=center;html=1;verticalAlign=top;strokeWidth=1;shape=mxgraph.mockup.navigation.scrollBar;strokeColor=#000000;barPos=20;fillColor2=#008cff;strokeColor2=none;rotation=90;fontSize=12;movable=1;resizable=1;rotatable=1;deletable=1;editable=1;locked=0;connectable=1;" parent="1" vertex="1">
          <mxGeometry x="2298" y="-2269.6666666666665" width="125.99999999999999" height="20.26666666666667" as="geometry" />
        </mxCell>
        <mxCell id="BMpMJqY8s_4Y7fT_cOyo-1024" value="" style="strokeWidth=1;shadow=0;dashed=0;align=center;html=1;shape=mxgraph.mockup.forms.comboBox;strokeColor=#999999;fillColor=#008cff;align=left;fillColor2=#008cff;mainText=;fontColor=#666666;fontSize=17;spacingLeft=3;gradientColor=none;fillStyle=auto;movable=1;resizable=1;rotatable=1;deletable=1;editable=1;locked=0;connectable=1;" parent="1" vertex="1">
          <mxGeometry x="1578.4099999999999" y="-2037.9399999999996" width="351.37" height="19.63" as="geometry" />
        </mxCell>
        <mxCell id="BMpMJqY8s_4Y7fT_cOyo-1025" value="" style="strokeWidth=1;shadow=0;dashed=0;align=center;html=1;shape=mxgraph.mockup.forms.comboBox;strokeColor=#999999;fillColor=#008cff;align=left;fillColor2=#008cff;mainText=;fontColor=#666666;fontSize=17;spacingLeft=3;gradientColor=none;fillStyle=auto;movable=1;resizable=1;rotatable=1;deletable=1;editable=1;locked=0;connectable=1;" parent="1" vertex="1">
          <mxGeometry x="1577.73" y="-1991.3999999999996" width="351.37" height="19.63" as="geometry" />
        </mxCell>
        <mxCell id="BMpMJqY8s_4Y7fT_cOyo-1032" value="Окно &quot;Карточка сотрудника&quot; в режиме добавления нового сотрудника&lt;div&gt;&lt;br&gt;&lt;/div&gt;&lt;div&gt;Отображает пустые поля для данныех сотрудника доступные для заполнения&lt;br&gt;&lt;/div&gt;&lt;div&gt;&lt;br&gt;&lt;/div&gt;" style="text;html=1;align=left;verticalAlign=top;whiteSpace=wrap;rounded=0;movable=1;resizable=1;rotatable=1;deletable=1;editable=1;locked=0;connectable=1;" parent="1" vertex="1">
          <mxGeometry x="1550" y="-2510" width="510" height="70" as="geometry" />
        </mxCell>
      </root>
    </mxGraphModel>
  </diagram>
</mxfile>
